<svg xmlns="http://www.w3.org/2000/svg" xmlns:xlink="http://www.w3.org/1999/xlink" width="559" zoomAndPan="magnify" viewBox="0 0 419.25 141.749996" height="189" preserveAspectRatio="xMidYMid meet" version="1.0"><defs><g/></defs><path stroke-linecap="butt" transform="matrix(1.219808, 0, 0, 1.219808, 14.138558, 72.003414)" fill="none" stroke-linejoin="miter" d="M -0.0015081 0.49997 L 319.90671 0.49997 " stroke="#ffffff" stroke-width="1" stroke-opacity="1" stroke-miterlimit="4"/><g fill="#ffffff" fill-opacity="1"><g transform="translate(14.138558, 55.57491)"><g><path d="M 14.015625 0.484375 C 11.421875 0.484375 9.09375 0.109375 7.03125 -0.640625 C 4.96875 -1.390625 3.363281 -2.175781 2.21875 -3 L 1.96875 -9.828125 L 2.5 -9.9375 C 3.15625 -8.226562 4.015625 -6.644531 5.078125 -5.1875 C 6.148438 -3.726562 7.503906 -2.5625 9.140625 -1.6875 C 10.785156 -0.820312 12.738281 -0.390625 15 -0.390625 C 16.3125 -0.390625 17.523438 -0.660156 18.640625 -1.203125 C 19.753906 -1.742188 20.644531 -2.503906 21.3125 -3.484375 C 21.988281 -4.472656 22.328125 -5.625 22.328125 -6.9375 C 22.328125 -8.175781 22 -9.253906 21.34375 -10.171875 C 20.6875 -11.097656 19.832031 -11.90625 18.78125 -12.59375 C 17.726562 -13.28125 16.617188 -13.875 15.453125 -14.375 C 14.296875 -14.882812 13.191406 -15.351562 12.140625 -15.78125 C 10.210938 -16.570312 8.535156 -17.367188 7.109375 -18.171875 C 5.679688 -18.972656 4.582031 -19.9375 3.8125 -21.0625 C 3.039062 -22.195312 2.65625 -23.632812 2.65625 -25.375 C 2.65625 -27.3125 3.15625 -28.972656 4.15625 -30.359375 C 5.15625 -31.753906 6.554688 -32.835938 8.359375 -33.609375 C 10.160156 -34.378906 12.257812 -34.765625 14.65625 -34.765625 C 16.882812 -34.765625 18.800781 -34.519531 20.40625 -34.03125 C 22.007812 -33.539062 23.285156 -33.03125 24.234375 -32.5 L 24.4375 -26.796875 L 23.953125 -26.65625 C 23.023438 -28.78125 21.6875 -30.53125 19.9375 -31.90625 C 18.1875 -33.289062 15.898438 -33.984375 13.078125 -33.984375 C 11.765625 -33.984375 10.539062 -33.726562 9.40625 -33.21875 C 8.28125 -32.707031 7.378906 -31.972656 6.703125 -31.015625 C 6.035156 -30.066406 5.703125 -28.890625 5.703125 -27.484375 C 5.703125 -26.335938 5.976562 -25.335938 6.53125 -24.484375 C 7.09375 -23.628906 7.832031 -22.890625 8.75 -22.265625 C 9.664062 -21.648438 10.664062 -21.101562 11.75 -20.625 C 12.832031 -20.15625 13.898438 -19.707031 14.953125 -19.28125 C 16.785156 -18.550781 18.503906 -17.773438 20.109375 -16.953125 C 21.710938 -16.140625 23.015625 -15.140625 24.015625 -13.953125 C 25.015625 -12.773438 25.515625 -11.253906 25.515625 -9.390625 C 25.515625 -7.359375 24.957031 -5.597656 23.84375 -4.109375 C 22.726562 -2.617188 21.296875 -1.476562 19.546875 -0.6875 C 17.796875 0.09375 15.953125 0.484375 14.015625 0.484375 Z M 14.015625 0.484375 "/></g></g></g><g fill="#ffffff" fill-opacity="1"><g transform="translate(44.321131, 55.57491)"><g><path d="M -0.828125 0 L -0.828125 -0.640625 C -0.140625 -0.867188 0.523438 -1.316406 1.171875 -1.984375 C 1.828125 -2.660156 2.535156 -3.929688 3.296875 -5.796875 L 12.984375 -29.796875 C 13.273438 -30.585938 13.242188 -31.359375 12.890625 -32.109375 L 12.4375 -33.140625 L 16.125 -34.8125 L 28.21875 -5.75 C 28.976562 -3.914062 29.660156 -2.660156 30.265625 -1.984375 C 30.867188 -1.316406 31.4375 -0.867188 31.96875 -0.640625 L 31.96875 0 L 24.34375 0 L 24.34375 -0.640625 C 25.09375 -0.867188 25.398438 -1.316406 25.265625 -1.984375 C 25.140625 -2.660156 24.679688 -3.914062 23.890625 -5.75 L 20.890625 -12.984375 L 7.03125 -12.984375 L 4.125 -5.796875 C 2.882812 -2.679688 3.082031 -0.960938 4.71875 -0.640625 L 4.71875 0 Z M 7.328125 -13.71875 L 20.609375 -13.71875 L 13.859375 -29.890625 Z M 7.328125 -13.71875 "/></g></g></g><g fill="#ffffff" fill-opacity="1"><g transform="translate(74.551425, 55.57491)"><g><path d="M 3.484375 -28.625 C 2.765625 -30.488281 2.101562 -31.753906 1.5 -32.421875 C 0.894531 -33.097656 0.328125 -33.550781 -0.203125 -33.78125 L -0.203125 -34.421875 L 7.46875 -34.421875 L 7.46875 -33.78125 C 6.75 -33.550781 6.445312 -33.097656 6.5625 -32.421875 C 6.675781 -31.753906 7.09375 -30.488281 7.8125 -28.625 L 17.3125 -4.28125 L 26.65625 -28.5625 C 27.269531 -30.207031 27.53125 -31.445312 27.4375 -32.28125 C 27.34375 -33.113281 26.867188 -33.613281 26.015625 -33.78125 L 26.015625 -34.421875 L 31.515625 -34.421875 L 31.515625 -33.78125 C 30.859375 -33.550781 30.210938 -33.097656 29.578125 -32.421875 C 28.941406 -31.753906 28.257812 -30.488281 27.53125 -28.625 L 16.375 0.25 L 15 0.25 Z M 3.484375 -28.625 "/></g></g></g><g fill="#ffffff" fill-opacity="1"><g transform="translate(109.403811, 55.57491)"><g><path d="M 2.5 0 L 2.5 -0.640625 C 3.257812 -0.867188 3.773438 -1.359375 4.046875 -2.109375 C 4.328125 -2.867188 4.46875 -4.25 4.46875 -6.25 L 4.46875 -28.171875 C 4.46875 -30.203125 4.328125 -31.585938 4.046875 -32.328125 C 3.773438 -33.066406 3.257812 -33.550781 2.5 -33.78125 L 2.5 -34.421875 L 25.375 -34.421875 L 25.90625 -28.03125 L 25.375 -27.875 C 24.519531 -30.039062 23.328125 -31.550781 21.796875 -32.40625 C 20.273438 -33.257812 18.253906 -33.6875 15.734375 -33.6875 L 8.5 -33.6875 L 8.5 -18.78125 L 14.796875 -18.78125 C 16.671875 -18.78125 18.125 -18.898438 19.15625 -19.140625 C 20.1875 -19.390625 20.9375 -19.769531 21.40625 -20.28125 C 21.882812 -20.789062 22.222656 -21.40625 22.421875 -22.125 L 23.015625 -22.125 L 23.015625 -14.703125 L 22.421875 -14.703125 C 22.222656 -15.453125 21.882812 -16.070312 21.40625 -16.5625 C 20.9375 -17.0625 20.1875 -17.429688 19.15625 -17.671875 C 18.125 -17.921875 16.671875 -18.046875 14.796875 -18.046875 L 8.5 -18.046875 L 8.5 -2.953125 C 8.5 -1.472656 9.238281 -0.734375 10.71875 -0.734375 L 17.109375 -0.734375 C 19.472656 -0.734375 21.425781 -1.144531 22.96875 -1.96875 C 24.507812 -2.789062 25.722656 -4.347656 26.609375 -6.640625 L 27.140625 -6.546875 L 26.75 0 Z M 2.5 0 "/></g></g></g><g fill="#ffffff" fill-opacity="1"><g transform="translate(141.945969, 55.57491)"><g/></g></g><g fill="#ffffff" fill-opacity="1"><g transform="translate(155.858621, 55.57491)"><g><path d="M 9.78125 0 L 9.78125 -0.640625 C 10.539062 -0.867188 11.054688 -1.359375 11.328125 -2.109375 C 11.609375 -2.867188 11.75 -4.25 11.75 -6.25 L 11.75 -33.640625 L 9.34375 -33.640625 C 7.144531 -33.640625 5.472656 -33.289062 4.328125 -32.59375 C 3.179688 -31.90625 2.179688 -30.675781 1.328125 -28.90625 L 0.78125 -29.015625 L 1.078125 -34.421875 L 26.40625 -34.421875 L 26.703125 -29.015625 L 26.15625 -28.90625 C 25.34375 -30.675781 24.359375 -31.90625 23.203125 -32.59375 C 22.054688 -33.289062 20.367188 -33.640625 18.140625 -33.640625 L 15.828125 -33.640625 L 15.828125 -6.25 C 15.828125 -4.25 15.96875 -2.867188 16.25 -2.109375 C 16.53125 -1.359375 17.046875 -0.867188 17.796875 -0.640625 L 17.796875 0 Z M 9.78125 0 "/></g></g></g><g fill="#ffffff" fill-opacity="1"><g transform="translate(186.975299, 55.57491)"><g><path d="M 2.5 0 L 2.5 -0.640625 C 3.257812 -0.867188 3.773438 -1.359375 4.046875 -2.109375 C 4.328125 -2.867188 4.46875 -4.25 4.46875 -6.25 L 4.46875 -28.171875 C 4.46875 -30.203125 4.328125 -31.585938 4.046875 -32.328125 C 3.773438 -33.066406 3.257812 -33.550781 2.5 -33.78125 L 2.5 -34.421875 L 10.46875 -34.421875 L 10.46875 -33.78125 C 9.71875 -33.550781 9.203125 -33.066406 8.921875 -32.328125 C 8.640625 -31.585938 8.5 -30.203125 8.5 -28.171875 L 8.5 -18.640625 L 27.234375 -18.640625 L 27.234375 -28.171875 C 27.234375 -30.203125 27.09375 -31.585938 26.8125 -32.328125 C 26.539062 -33.066406 26.03125 -33.550781 25.28125 -33.78125 L 25.28125 -34.421875 L 33.234375 -34.421875 L 33.234375 -33.78125 C 32.484375 -33.550781 31.96875 -33.066406 31.6875 -32.328125 C 31.40625 -31.585938 31.265625 -30.203125 31.265625 -28.171875 L 31.265625 -6.25 C 31.265625 -4.25 31.40625 -2.867188 31.6875 -2.109375 C 31.96875 -1.359375 32.484375 -0.867188 33.234375 -0.640625 L 33.234375 0 L 25.28125 0 L 25.28125 -0.640625 C 26.03125 -0.867188 26.539062 -1.359375 26.8125 -2.109375 C 27.09375 -2.867188 27.234375 -4.25 27.234375 -6.25 L 27.234375 -17.84375 L 8.5 -17.84375 L 8.5 -6.25 C 8.5 -4.25 8.640625 -2.867188 8.921875 -2.109375 C 9.203125 -1.359375 9.71875 -0.867188 10.46875 -0.640625 L 10.46875 0 Z M 2.5 0 "/></g></g></g><g fill="#ffffff" fill-opacity="1"><g transform="translate(226.251601, 55.57491)"><g><path d="M 2.5 0 L 2.5 -0.640625 C 3.257812 -0.867188 3.773438 -1.359375 4.046875 -2.109375 C 4.328125 -2.867188 4.46875 -4.25 4.46875 -6.25 L 4.46875 -28.171875 C 4.46875 -30.203125 4.328125 -31.585938 4.046875 -32.328125 C 3.773438 -33.066406 3.257812 -33.550781 2.5 -33.78125 L 2.5 -34.421875 L 25.375 -34.421875 L 25.90625 -28.03125 L 25.375 -27.875 C 24.519531 -30.039062 23.328125 -31.550781 21.796875 -32.40625 C 20.273438 -33.257812 18.253906 -33.6875 15.734375 -33.6875 L 8.5 -33.6875 L 8.5 -18.78125 L 14.796875 -18.78125 C 16.671875 -18.78125 18.125 -18.898438 19.15625 -19.140625 C 20.1875 -19.390625 20.9375 -19.769531 21.40625 -20.28125 C 21.882812 -20.789062 22.222656 -21.40625 22.421875 -22.125 L 23.015625 -22.125 L 23.015625 -14.703125 L 22.421875 -14.703125 C 22.222656 -15.453125 21.882812 -16.070312 21.40625 -16.5625 C 20.9375 -17.0625 20.1875 -17.429688 19.15625 -17.671875 C 18.125 -17.921875 16.671875 -18.046875 14.796875 -18.046875 L 8.5 -18.046875 L 8.5 -2.953125 C 8.5 -1.472656 9.238281 -0.734375 10.71875 -0.734375 L 17.109375 -0.734375 C 19.472656 -0.734375 21.425781 -1.144531 22.96875 -1.96875 C 24.507812 -2.789062 25.722656 -4.347656 26.609375 -6.640625 L 27.140625 -6.546875 L 26.75 0 Z M 2.5 0 "/></g></g></g><g fill="#ffffff" fill-opacity="1"><g transform="translate(258.793758, 55.57491)"><g/></g></g><g fill="#ffffff" fill-opacity="1"><g transform="translate(272.70641, 55.57491)"><g><path d="M 2.5 0 L 2.5 -0.640625 C 3.257812 -0.867188 3.773438 -1.359375 4.046875 -2.109375 C 4.328125 -2.867188 4.46875 -4.25 4.46875 -6.25 L 4.46875 -28.171875 C 4.46875 -30.203125 4.328125 -31.585938 4.046875 -32.328125 C 3.773438 -33.066406 3.257812 -33.550781 2.5 -33.78125 L 2.5 -34.421875 L 14.265625 -34.421875 C 17.640625 -34.421875 20.519531 -33.9375 22.90625 -32.96875 C 25.300781 -32 27.253906 -30.710938 28.765625 -29.109375 C 30.273438 -27.503906 31.378906 -25.722656 32.078125 -23.765625 C 32.785156 -21.816406 33.140625 -19.84375 33.140625 -17.84375 C 33.171875 -14.40625 32.457031 -11.34375 31 -8.65625 C 29.539062 -5.96875 27.472656 -3.851562 24.796875 -2.3125 C 22.128906 -0.769531 18.992188 0 15.390625 0 Z M 8.5 -4.328125 C 8.5 -3.179688 8.695312 -2.296875 9.09375 -1.671875 C 9.488281 -1.046875 10.359375 -0.734375 11.703125 -0.734375 L 15.296875 -0.734375 C 19.585938 -0.734375 22.890625 -1.96875 25.203125 -4.4375 C 27.515625 -6.914062 28.671875 -10.726562 28.671875 -15.875 C 28.671875 -19.15625 28.03125 -22.140625 26.75 -24.828125 C 25.46875 -27.515625 23.582031 -29.660156 21.09375 -31.265625 C 18.601562 -32.878906 15.519531 -33.6875 11.84375 -33.6875 L 8.5 -33.6875 Z M 8.5 -4.328125 "/></g></g></g><g fill="#ffffff" fill-opacity="1"><g transform="translate(309.376698, 55.57491)"><g><path d="M -0.828125 0 L -0.828125 -0.640625 C -0.140625 -0.867188 0.523438 -1.316406 1.171875 -1.984375 C 1.828125 -2.660156 2.535156 -3.929688 3.296875 -5.796875 L 12.984375 -29.796875 C 13.273438 -30.585938 13.242188 -31.359375 12.890625 -32.109375 L 12.4375 -33.140625 L 16.125 -34.8125 L 28.21875 -5.75 C 28.976562 -3.914062 29.660156 -2.660156 30.265625 -1.984375 C 30.867188 -1.316406 31.4375 -0.867188 31.96875 -0.640625 L 31.96875 0 L 24.34375 0 L 24.34375 -0.640625 C 25.09375 -0.867188 25.398438 -1.316406 25.265625 -1.984375 C 25.140625 -2.660156 24.679688 -3.914062 23.890625 -5.75 L 20.890625 -12.984375 L 7.03125 -12.984375 L 4.125 -5.796875 C 2.882812 -2.679688 3.082031 -0.960938 4.71875 -0.640625 L 4.71875 0 Z M 7.328125 -13.71875 L 20.609375 -13.71875 L 13.859375 -29.890625 Z M 7.328125 -13.71875 "/></g></g></g><g fill="#ffffff" fill-opacity="1"><g transform="translate(340.541248, 55.57491)"><g><path d="M 9.78125 0 L 9.78125 -0.640625 C 10.539062 -0.867188 11.054688 -1.359375 11.328125 -2.109375 C 11.609375 -2.867188 11.75 -4.25 11.75 -6.25 L 11.75 -33.640625 L 9.34375 -33.640625 C 7.144531 -33.640625 5.472656 -33.289062 4.328125 -32.59375 C 3.179688 -31.90625 2.179688 -30.675781 1.328125 -28.90625 L 0.78125 -29.015625 L 1.078125 -34.421875 L 26.40625 -34.421875 L 26.703125 -29.015625 L 26.15625 -28.90625 C 25.34375 -30.675781 24.359375 -31.90625 23.203125 -32.59375 C 22.054688 -33.289062 20.367188 -33.640625 18.140625 -33.640625 L 15.828125 -33.640625 L 15.828125 -6.25 C 15.828125 -4.25 15.96875 -2.867188 16.25 -2.109375 C 16.53125 -1.359375 17.046875 -0.867188 17.796875 -0.640625 L 17.796875 0 Z M 9.78125 0 "/></g></g></g><g fill="#ffffff" fill-opacity="1"><g transform="translate(371.657926, 55.57491)"><g><path d="M 2.5 0 L 2.5 -0.640625 C 3.257812 -0.867188 3.773438 -1.359375 4.046875 -2.109375 C 4.328125 -2.867188 4.46875 -4.25 4.46875 -6.25 L 4.46875 -28.171875 C 4.46875 -30.203125 4.328125 -31.585938 4.046875 -32.328125 C 3.773438 -33.066406 3.257812 -33.550781 2.5 -33.78125 L 2.5 -34.421875 L 25.375 -34.421875 L 25.90625 -28.03125 L 25.375 -27.875 C 24.519531 -30.039062 23.328125 -31.550781 21.796875 -32.40625 C 20.273438 -33.257812 18.253906 -33.6875 15.734375 -33.6875 L 8.5 -33.6875 L 8.5 -18.78125 L 14.796875 -18.78125 C 16.671875 -18.78125 18.125 -18.898438 19.15625 -19.140625 C 20.1875 -19.390625 20.9375 -19.769531 21.40625 -20.28125 C 21.882812 -20.789062 22.222656 -21.40625 22.421875 -22.125 L 23.015625 -22.125 L 23.015625 -14.703125 L 22.421875 -14.703125 C 22.222656 -15.453125 21.882812 -16.070312 21.40625 -16.5625 C 20.9375 -17.0625 20.1875 -17.429688 19.15625 -17.671875 C 18.125 -17.921875 16.671875 -18.046875 14.796875 -18.046875 L 8.5 -18.046875 L 8.5 -2.953125 C 8.5 -1.472656 9.238281 -0.734375 10.71875 -0.734375 L 17.109375 -0.734375 C 19.472656 -0.734375 21.425781 -1.144531 22.96875 -1.96875 C 24.507812 -2.789062 25.722656 -4.347656 26.609375 -6.640625 L 27.140625 -6.546875 L 26.75 0 Z M 2.5 0 "/></g></g></g><g fill="#ffffff" fill-opacity="1"><g transform="translate(140.671615, 108.924692)"><g><path d="M 6.375 0.28125 C 4.914062 0.28125 3.738281 -0.191406 2.84375 -1.140625 C 1.945312 -2.085938 1.5 -3.332031 1.5 -4.875 L 1.5 -15.328125 C 1.5 -16.867188 1.945312 -18.113281 2.84375 -19.0625 C 3.738281 -20.007812 4.914062 -20.484375 6.375 -20.484375 C 7.851562 -20.484375 9.046875 -20.007812 9.953125 -19.0625 C 10.859375 -18.113281 11.3125 -16.867188 11.3125 -15.328125 L 11.3125 -4.875 C 11.3125 -3.332031 10.859375 -2.085938 9.953125 -1.140625 C 9.046875 -0.191406 7.851562 0.28125 6.375 0.28125 Z M 6.375 -1.5 C 7.257812 -1.5 7.960938 -1.796875 8.484375 -2.390625 C 9.003906 -2.992188 9.265625 -3.785156 9.265625 -4.765625 L 9.265625 -15.4375 C 9.265625 -16.414062 9.003906 -17.203125 8.484375 -17.796875 C 7.960938 -18.398438 7.257812 -18.703125 6.375 -18.703125 C 5.53125 -18.703125 4.847656 -18.398438 4.328125 -17.796875 C 3.804688 -17.203125 3.546875 -16.414062 3.546875 -15.4375 L 3.546875 -4.765625 C 3.546875 -3.785156 3.804688 -2.992188 4.328125 -2.390625 C 4.847656 -1.796875 5.53125 -1.5 6.375 -1.5 Z M 6.375 -1.5 "/></g></g></g><g fill="#ffffff" fill-opacity="1"><g transform="translate(153.629012, 108.924692)"><g><path d="M 10.09375 -4.703125 C 10.09375 -3.203125 9.671875 -2.003906 8.828125 -1.109375 C 7.984375 -0.210938 6.867188 0.234375 5.484375 0.234375 C 4.234375 0.234375 3.195312 -0.21875 2.375 -1.125 C 1.5625 -2.03125 1.15625 -3.222656 1.15625 -4.703125 L 1.15625 -5.171875 C 1.15625 -5.359375 1.25 -5.453125 1.4375 -5.453125 L 2.921875 -5.453125 C 3.109375 -5.453125 3.203125 -5.359375 3.203125 -5.171875 L 3.203125 -4.765625 C 3.203125 -3.835938 3.421875 -3.078125 3.859375 -2.484375 C 4.304688 -1.898438 4.847656 -1.609375 5.484375 -1.609375 C 6.253906 -1.609375 6.867188 -1.894531 7.328125 -2.46875 C 7.785156 -3.050781 8.015625 -3.816406 8.015625 -4.765625 L 8.015625 -8.625 C 8.015625 -8.664062 8 -8.691406 7.96875 -8.703125 C 7.945312 -8.710938 7.914062 -8.695312 7.875 -8.65625 C 7.601562 -8.269531 7.253906 -7.972656 6.828125 -7.765625 C 6.410156 -7.566406 5.941406 -7.46875 5.421875 -7.46875 C 4.253906 -7.46875 3.296875 -7.820312 2.546875 -8.53125 C 1.796875 -9.25 1.3125 -10.234375 1.09375 -11.484375 C 0.9375 -12.253906 0.859375 -13.109375 0.859375 -14.046875 C 0.859375 -14.878906 0.898438 -15.59375 0.984375 -16.1875 C 1.140625 -17.550781 1.601562 -18.597656 2.375 -19.328125 C 3.15625 -20.066406 4.191406 -20.4375 5.484375 -20.4375 C 6.671875 -20.4375 7.648438 -20.097656 8.421875 -19.421875 C 9.191406 -18.742188 9.675781 -17.753906 9.875 -16.453125 C 10.007812 -15.835938 10.078125 -15.078125 10.078125 -14.171875 Z M 5.484375 -9.265625 C 6.734375 -9.265625 7.519531 -10.023438 7.84375 -11.546875 C 7.957031 -12.160156 8.015625 -12.945312 8.015625 -13.90625 C 8.015625 -14.8125 7.96875 -15.5625 7.875 -16.15625 C 7.550781 -17.8125 6.753906 -18.640625 5.484375 -18.640625 C 4.828125 -18.640625 4.289062 -18.414062 3.875 -17.96875 C 3.46875 -17.53125 3.195312 -16.878906 3.0625 -16.015625 C 2.96875 -15.242188 2.921875 -14.539062 2.921875 -13.90625 C 2.921875 -13.039062 3.003906 -12.210938 3.171875 -11.421875 C 3.328125 -10.710938 3.601562 -10.175781 4 -9.8125 C 4.394531 -9.445312 4.890625 -9.265625 5.484375 -9.265625 Z M 5.484375 -9.265625 "/></g></g></g><g fill="#ffffff" fill-opacity="1"><g transform="translate(184.852085, 108.924692)"><g><path d="M 3.640625 -1.9375 C 3.617188 -1.894531 3.617188 -1.859375 3.640625 -1.828125 C 3.660156 -1.804688 3.6875 -1.796875 3.71875 -1.796875 L 10.5 -1.796875 C 10.695312 -1.796875 10.796875 -1.695312 10.796875 -1.5 L 10.796875 -0.28125 C 10.796875 -0.09375 10.695312 0 10.5 0 L 1.4375 0 C 1.25 0 1.15625 -0.09375 1.15625 -0.28125 L 1.15625 -1.59375 C 1.15625 -1.738281 1.191406 -1.863281 1.265625 -1.96875 C 1.867188 -2.90625 2.207031 -3.441406 2.28125 -3.578125 C 3.96875 -6.253906 5.304688 -8.425781 6.296875 -10.09375 C 7.523438 -12.21875 8.140625 -13.972656 8.140625 -15.359375 C 8.140625 -16.359375 7.90625 -17.15625 7.4375 -17.75 C 6.976562 -18.34375 6.375 -18.640625 5.625 -18.640625 C 4.894531 -18.640625 4.300781 -18.34375 3.84375 -17.75 C 3.394531 -17.164062 3.179688 -16.394531 3.203125 -15.4375 L 3.203125 -14.34375 C 3.203125 -14.144531 3.109375 -14.046875 2.921875 -14.046875 L 1.421875 -14.046875 C 1.222656 -14.046875 1.125 -14.144531 1.125 -14.34375 L 1.125 -15.5 C 1.164062 -16.976562 1.601562 -18.171875 2.4375 -19.078125 C 3.269531 -19.984375 4.363281 -20.4375 5.71875 -20.4375 C 7.0625 -20.4375 8.144531 -19.96875 8.96875 -19.03125 C 9.800781 -18.101562 10.21875 -16.878906 10.21875 -15.359375 C 10.21875 -13.546875 9.535156 -11.503906 8.171875 -9.234375 C 7.472656 -8.054688 6.5 -6.476562 5.25 -4.5 Z M 3.640625 -1.9375 "/></g></g></g><g fill="#ffffff" fill-opacity="1"><g transform="translate(196.59744, 108.924692)"><g><path d="M 11.046875 -7.390625 C 11.242188 -7.390625 11.34375 -7.289062 11.34375 -7.09375 L 11.34375 -5.828125 C 11.34375 -5.640625 11.242188 -5.546875 11.046875 -5.546875 L 10.15625 -5.546875 C 10.082031 -5.546875 10.046875 -5.503906 10.046875 -5.421875 L 10.046875 -0.28125 C 10.046875 -0.09375 9.945312 0 9.75 0 L 8.28125 0 C 8.09375 0 8 -0.09375 8 -0.28125 L 8 -5.421875 C 8 -5.503906 7.957031 -5.546875 7.875 -5.546875 L 0.921875 -5.546875 C 0.734375 -5.546875 0.640625 -5.640625 0.640625 -5.828125 L 0.640625 -6.921875 C 0.640625 -7.003906 0.65625 -7.117188 0.6875 -7.265625 L 5.015625 -19.96875 C 5.078125 -20.125 5.195312 -20.203125 5.375 -20.203125 L 6.953125 -20.203125 C 7.160156 -20.203125 7.238281 -20.097656 7.1875 -19.890625 L 3.03125 -7.53125 C 3.007812 -7.488281 3.007812 -7.453125 3.03125 -7.421875 C 3.050781 -7.398438 3.078125 -7.390625 3.109375 -7.390625 L 7.875 -7.390625 C 7.957031 -7.390625 8 -7.425781 8 -7.5 L 8 -11.921875 C 8 -12.109375 8.09375 -12.203125 8.28125 -12.203125 L 9.75 -12.203125 C 9.945312 -12.203125 10.046875 -12.109375 10.046875 -11.921875 L 10.046875 -7.5 C 10.046875 -7.425781 10.082031 -7.390625 10.15625 -7.390625 Z M 11.046875 -7.390625 "/></g></g></g><g fill="#ffffff" fill-opacity="1"><g transform="translate(227.5166, 108.924692)"><g><path d="M 3.640625 -1.9375 C 3.617188 -1.894531 3.617188 -1.859375 3.640625 -1.828125 C 3.660156 -1.804688 3.6875 -1.796875 3.71875 -1.796875 L 10.5 -1.796875 C 10.695312 -1.796875 10.796875 -1.695312 10.796875 -1.5 L 10.796875 -0.28125 C 10.796875 -0.09375 10.695312 0 10.5 0 L 1.4375 0 C 1.25 0 1.15625 -0.09375 1.15625 -0.28125 L 1.15625 -1.59375 C 1.15625 -1.738281 1.191406 -1.863281 1.265625 -1.96875 C 1.867188 -2.90625 2.207031 -3.441406 2.28125 -3.578125 C 3.96875 -6.253906 5.304688 -8.425781 6.296875 -10.09375 C 7.523438 -12.21875 8.140625 -13.972656 8.140625 -15.359375 C 8.140625 -16.359375 7.90625 -17.15625 7.4375 -17.75 C 6.976562 -18.34375 6.375 -18.640625 5.625 -18.640625 C 4.894531 -18.640625 4.300781 -18.34375 3.84375 -17.75 C 3.394531 -17.164062 3.179688 -16.394531 3.203125 -15.4375 L 3.203125 -14.34375 C 3.203125 -14.144531 3.109375 -14.046875 2.921875 -14.046875 L 1.421875 -14.046875 C 1.222656 -14.046875 1.125 -14.144531 1.125 -14.34375 L 1.125 -15.5 C 1.164062 -16.976562 1.601562 -18.171875 2.4375 -19.078125 C 3.269531 -19.984375 4.363281 -20.4375 5.71875 -20.4375 C 7.0625 -20.4375 8.144531 -19.96875 8.96875 -19.03125 C 9.800781 -18.101562 10.21875 -16.878906 10.21875 -15.359375 C 10.21875 -13.546875 9.535156 -11.503906 8.171875 -9.234375 C 7.472656 -8.054688 6.5 -6.476562 5.25 -4.5 Z M 3.640625 -1.9375 "/></g></g></g><g fill="#ffffff" fill-opacity="1"><g transform="translate(239.261954, 108.924692)"><g><path d="M 6.375 0.28125 C 4.914062 0.28125 3.738281 -0.191406 2.84375 -1.140625 C 1.945312 -2.085938 1.5 -3.332031 1.5 -4.875 L 1.5 -15.328125 C 1.5 -16.867188 1.945312 -18.113281 2.84375 -19.0625 C 3.738281 -20.007812 4.914062 -20.484375 6.375 -20.484375 C 7.851562 -20.484375 9.046875 -20.007812 9.953125 -19.0625 C 10.859375 -18.113281 11.3125 -16.867188 11.3125 -15.328125 L 11.3125 -4.875 C 11.3125 -3.332031 10.859375 -2.085938 9.953125 -1.140625 C 9.046875 -0.191406 7.851562 0.28125 6.375 0.28125 Z M 6.375 -1.5 C 7.257812 -1.5 7.960938 -1.796875 8.484375 -2.390625 C 9.003906 -2.992188 9.265625 -3.785156 9.265625 -4.765625 L 9.265625 -15.4375 C 9.265625 -16.414062 9.003906 -17.203125 8.484375 -17.796875 C 7.960938 -18.398438 7.257812 -18.703125 6.375 -18.703125 C 5.53125 -18.703125 4.847656 -18.398438 4.328125 -17.796875 C 3.804688 -17.203125 3.546875 -16.414062 3.546875 -15.4375 L 3.546875 -4.765625 C 3.546875 -3.785156 3.804688 -2.992188 4.328125 -2.390625 C 4.847656 -1.796875 5.53125 -1.5 6.375 -1.5 Z M 6.375 -1.5 "/></g></g></g><g fill="#ffffff" fill-opacity="1"><g transform="translate(252.219351, 108.924692)"><g><path d="M 3.640625 -1.9375 C 3.617188 -1.894531 3.617188 -1.859375 3.640625 -1.828125 C 3.660156 -1.804688 3.6875 -1.796875 3.71875 -1.796875 L 10.5 -1.796875 C 10.695312 -1.796875 10.796875 -1.695312 10.796875 -1.5 L 10.796875 -0.28125 C 10.796875 -0.09375 10.695312 0 10.5 0 L 1.4375 0 C 1.25 0 1.15625 -0.09375 1.15625 -0.28125 L 1.15625 -1.59375 C 1.15625 -1.738281 1.191406 -1.863281 1.265625 -1.96875 C 1.867188 -2.90625 2.207031 -3.441406 2.28125 -3.578125 C 3.96875 -6.253906 5.304688 -8.425781 6.296875 -10.09375 C 7.523438 -12.21875 8.140625 -13.972656 8.140625 -15.359375 C 8.140625 -16.359375 7.90625 -17.15625 7.4375 -17.75 C 6.976562 -18.34375 6.375 -18.640625 5.625 -18.640625 C 4.894531 -18.640625 4.300781 -18.34375 3.84375 -17.75 C 3.394531 -17.164062 3.179688 -16.394531 3.203125 -15.4375 L 3.203125 -14.34375 C 3.203125 -14.144531 3.109375 -14.046875 2.921875 -14.046875 L 1.421875 -14.046875 C 1.222656 -14.046875 1.125 -14.144531 1.125 -14.34375 L 1.125 -15.5 C 1.164062 -16.976562 1.601562 -18.171875 2.4375 -19.078125 C 3.269531 -19.984375 4.363281 -20.4375 5.71875 -20.4375 C 7.0625 -20.4375 8.144531 -19.96875 8.96875 -19.03125 C 9.800781 -18.101562 10.21875 -16.878906 10.21875 -15.359375 C 10.21875 -13.546875 9.535156 -11.503906 8.171875 -9.234375 C 7.472656 -8.054688 6.5 -6.476562 5.25 -4.5 Z M 3.640625 -1.9375 "/></g></g></g><g fill="#ffffff" fill-opacity="1"><g transform="translate(263.964704, 108.924692)"><g><path d="M 10.53125 -8.71875 C 10.6875 -7.945312 10.765625 -7.085938 10.765625 -6.140625 C 10.765625 -5.316406 10.726562 -4.609375 10.65625 -4.015625 C 10.5 -2.648438 10.03125 -1.597656 9.25 -0.859375 C 8.46875 -0.128906 7.429688 0.234375 6.140625 0.234375 C 4.953125 0.234375 3.972656 -0.101562 3.203125 -0.78125 C 2.429688 -1.457031 1.953125 -2.445312 1.765625 -3.75 C 1.628906 -4.363281 1.5625 -5.125 1.5625 -6.03125 L 1.53125 -15.5 C 1.53125 -17 1.953125 -18.195312 2.796875 -19.09375 C 3.640625 -19.988281 4.753906 -20.4375 6.140625 -20.4375 C 7.390625 -20.4375 8.421875 -19.984375 9.234375 -19.078125 C 10.054688 -18.171875 10.46875 -16.976562 10.46875 -15.5 L 10.46875 -15.03125 C 10.46875 -14.84375 10.375 -14.75 10.1875 -14.75 L 8.71875 -14.75 C 8.519531 -14.75 8.421875 -14.84375 8.421875 -15.03125 L 8.421875 -15.4375 C 8.421875 -16.363281 8.195312 -17.117188 7.75 -17.703125 C 7.3125 -18.285156 6.773438 -18.578125 6.140625 -18.578125 C 5.378906 -18.578125 4.765625 -18.289062 4.296875 -17.71875 C 3.835938 -17.144531 3.609375 -16.382812 3.609375 -15.4375 L 3.609375 -11.578125 C 3.609375 -11.535156 3.617188 -11.507812 3.640625 -11.5 C 3.671875 -11.488281 3.707031 -11.503906 3.75 -11.546875 C 4.019531 -11.929688 4.363281 -12.222656 4.78125 -12.421875 C 5.207031 -12.628906 5.679688 -12.734375 6.203125 -12.734375 C 7.378906 -12.734375 8.34375 -12.375 9.09375 -11.65625 C 9.84375 -10.945312 10.320312 -9.96875 10.53125 -8.71875 Z M 8.578125 -4.1875 C 8.671875 -4.957031 8.71875 -5.660156 8.71875 -6.296875 C 8.71875 -7.179688 8.628906 -8.003906 8.453125 -8.765625 C 8.296875 -9.484375 8.019531 -10.023438 7.625 -10.390625 C 7.238281 -10.753906 6.742188 -10.9375 6.140625 -10.9375 C 4.890625 -10.9375 4.101562 -10.175781 3.78125 -8.65625 C 3.664062 -8.039062 3.609375 -7.253906 3.609375 -6.296875 C 3.609375 -5.390625 3.65625 -4.640625 3.75 -4.046875 C 4.082031 -2.390625 4.878906 -1.5625 6.140625 -1.5625 C 6.796875 -1.5625 7.332031 -1.78125 7.75 -2.21875 C 8.164062 -2.664062 8.441406 -3.320312 8.578125 -4.1875 Z M 8.578125 -4.1875 "/></g></g></g><path stroke-linecap="butt" transform="matrix(0, 1.200084, -1.200084, 0, 175.545387, 85.0393)" fill="none" stroke-linejoin="miter" d="M -0.000197742 0.500027 L 22.420103 0.500027 " stroke="#ffffff" stroke-width="1" stroke-opacity="1" stroke-miterlimit="4"/><path stroke-linecap="butt" transform="matrix(0, 1.200084, -1.200084, 0, 219.430077, 85.0393)" fill="none" stroke-linejoin="miter" d="M -0.000197742 0.501591 L 22.420103 0.501591 " stroke="#ffffff" stroke-width="1" stroke-opacity="1" stroke-miterlimit="4"/><g fill="#ffffff" fill-opacity="1"><g transform="translate(39.011589, 101.785061)"><g><path d="M 2.625 0.09375 C 2 0.09375 1.492188 -0.109375 1.109375 -0.515625 C 0.722656 -0.929688 0.53125 -1.472656 0.53125 -2.140625 L 0.53125 -2.421875 C 0.53125 -2.503906 0.570312 -2.546875 0.65625 -2.546875 L 1.28125 -2.546875 C 1.363281 -2.546875 1.40625 -2.503906 1.40625 -2.421875 L 1.40625 -2.171875 C 1.40625 -1.722656 1.515625 -1.363281 1.734375 -1.09375 C 1.960938 -0.820312 2.257812 -0.6875 2.625 -0.6875 C 2.976562 -0.6875 3.273438 -0.816406 3.515625 -1.078125 C 3.753906 -1.335938 3.875 -1.679688 3.875 -2.109375 C 3.875 -2.398438 3.816406 -2.644531 3.703125 -2.84375 C 3.585938 -3.050781 3.4375 -3.234375 3.25 -3.390625 C 3.070312 -3.546875 2.769531 -3.785156 2.34375 -4.109375 C 1.925781 -4.421875 1.59375 -4.6875 1.34375 -4.90625 C 1.101562 -5.132812 0.90625 -5.40625 0.75 -5.71875 C 0.59375 -6.03125 0.515625 -6.394531 0.515625 -6.8125 C 0.515625 -7.46875 0.703125 -7.988281 1.078125 -8.375 C 1.460938 -8.757812 1.957031 -8.953125 2.5625 -8.953125 C 3.207031 -8.953125 3.71875 -8.742188 4.09375 -8.328125 C 4.476562 -7.910156 4.671875 -7.351562 4.671875 -6.65625 L 4.671875 -6.34375 C 4.671875 -6.257812 4.628906 -6.21875 4.546875 -6.21875 L 3.921875 -6.21875 C 3.835938 -6.21875 3.796875 -6.257812 3.796875 -6.34375 L 3.796875 -6.671875 C 3.796875 -7.117188 3.679688 -7.476562 3.453125 -7.75 C 3.234375 -8.03125 2.9375 -8.171875 2.5625 -8.171875 C 2.226562 -8.171875 1.953125 -8.050781 1.734375 -7.8125 C 1.515625 -7.570312 1.40625 -7.226562 1.40625 -6.78125 C 1.40625 -6.519531 1.453125 -6.289062 1.546875 -6.09375 C 1.640625 -5.894531 1.785156 -5.707031 1.984375 -5.53125 C 2.179688 -5.351562 2.46875 -5.125 2.84375 -4.84375 C 3.351562 -4.46875 3.726562 -4.164062 3.96875 -3.9375 C 4.21875 -3.707031 4.410156 -3.453125 4.546875 -3.171875 C 4.679688 -2.898438 4.75 -2.570312 4.75 -2.1875 C 4.75 -1.5 4.550781 -0.945312 4.15625 -0.53125 C 3.757812 -0.113281 3.25 0.09375 2.625 0.09375 Z M 2.625 0.09375 "/></g></g></g><g fill="#ffffff" fill-opacity="1"><g transform="translate(44.153191, 101.787381)"><g><path d="M 4.796875 -8.84375 C 4.878906 -8.84375 4.921875 -8.800781 4.921875 -8.71875 L 4.921875 -8.1875 C 4.921875 -8.101562 4.878906 -8.0625 4.796875 -8.0625 L 3.125 -8.0625 C 3.09375 -8.0625 3.078125 -8.046875 3.078125 -8.015625 L 3.078125 -0.125 C 3.078125 -0.0390625 3.03125 0 2.9375 0 L 2.296875 0 C 2.210938 0 2.171875 -0.0390625 2.171875 -0.125 L 2.171875 -8.015625 C 2.171875 -8.046875 2.15625 -8.0625 2.125 -8.0625 L 0.5625 -8.0625 C 0.476562 -8.0625 0.4375 -8.101562 0.4375 -8.1875 L 0.4375 -8.71875 C 0.4375 -8.800781 0.476562 -8.84375 0.5625 -8.84375 Z M 4.796875 -8.84375 "/></g></g></g><g fill="#ffffff" fill-opacity="1"><g transform="translate(49.560081, 101.789821)"><g><path d="M 4.921875 -8.1875 C 4.921875 -8.101562 4.878906 -8.0625 4.796875 -8.0625 L 1.859375 -8.0625 C 1.828125 -8.0625 1.8125 -8.046875 1.8125 -8.015625 L 1.8125 -4.875 C 1.8125 -4.84375 1.828125 -4.828125 1.859375 -4.828125 L 3.703125 -4.828125 C 3.785156 -4.828125 3.828125 -4.785156 3.828125 -4.703125 L 3.828125 -4.15625 C 3.828125 -4.070312 3.785156 -4.03125 3.703125 -4.03125 L 1.859375 -4.03125 C 1.828125 -4.03125 1.8125 -4.015625 1.8125 -3.984375 L 1.8125 -0.828125 C 1.8125 -0.796875 1.828125 -0.78125 1.859375 -0.78125 L 4.796875 -0.78125 C 4.878906 -0.78125 4.921875 -0.738281 4.921875 -0.65625 L 4.921875 -0.125 C 4.921875 -0.0390625 4.878906 0 4.796875 0 L 1.03125 0 C 0.945312 0 0.90625 -0.0390625 0.90625 -0.125 L 0.90625 -8.71875 C 0.90625 -8.800781 0.945312 -8.84375 1.03125 -8.84375 L 4.796875 -8.84375 C 4.878906 -8.84375 4.921875 -8.800781 4.921875 -8.71875 Z M 4.921875 -8.1875 "/></g></g></g><g fill="#ffffff" fill-opacity="1"><g transform="translate(55.042775, 101.792295)"><g><path d="M 3.109375 -8.859375 C 3.722656 -8.859375 4.21875 -8.632812 4.59375 -8.1875 C 4.976562 -7.738281 5.171875 -7.144531 5.171875 -6.40625 C 5.171875 -5.6875 4.984375 -5.101562 4.609375 -4.65625 C 4.242188 -4.21875 3.753906 -4 3.140625 -4 L 1.84375 -4 C 1.8125 -4 1.796875 -3.976562 1.796875 -3.9375 L 1.796875 -0.125 C 1.796875 -0.0390625 1.753906 0 1.671875 0 L 1.03125 0 C 0.9375 0 0.890625 -0.0390625 0.890625 -0.125 L 0.890625 -8.734375 C 0.890625 -8.816406 0.9375 -8.859375 1.03125 -8.859375 Z M 3 -4.734375 C 3.375 -4.734375 3.675781 -4.882812 3.90625 -5.1875 C 4.144531 -5.488281 4.265625 -5.890625 4.265625 -6.390625 C 4.265625 -6.898438 4.144531 -7.304688 3.90625 -7.609375 C 3.675781 -7.921875 3.375 -8.078125 3 -8.078125 L 1.84375 -8.078125 C 1.8125 -8.078125 1.796875 -8.0625 1.796875 -8.03125 L 1.796875 -4.78125 C 1.796875 -4.75 1.8125 -4.734375 1.84375 -4.734375 Z M 3 -4.734375 "/></g></g></g><g fill="#ffffff" fill-opacity="1"><g transform="translate(60.689685, 101.794843)"><g><path d="M 4.15625 -8.71875 C 4.15625 -8.800781 4.195312 -8.84375 4.28125 -8.84375 L 4.9375 -8.84375 C 5.019531 -8.84375 5.0625 -8.800781 5.0625 -8.71875 L 5.0625 -0.125 C 5.0625 -0.0390625 5.019531 0 4.9375 0 L 4.28125 0 C 4.195312 0 4.15625 -0.0390625 4.15625 -0.125 L 4.15625 -3.984375 C 4.15625 -4.015625 4.140625 -4.03125 4.109375 -4.03125 L 1.859375 -4.03125 C 1.828125 -4.03125 1.8125 -4.015625 1.8125 -3.984375 L 1.8125 -0.125 C 1.8125 -0.0390625 1.769531 0 1.6875 0 L 1.03125 0 C 0.945312 0 0.90625 -0.0390625 0.90625 -0.125 L 0.90625 -8.71875 C 0.90625 -8.800781 0.945312 -8.84375 1.03125 -8.84375 L 1.6875 -8.84375 C 1.769531 -8.84375 1.8125 -8.800781 1.8125 -8.71875 L 1.8125 -4.875 C 1.8125 -4.84375 1.828125 -4.828125 1.859375 -4.828125 L 4.109375 -4.828125 C 4.140625 -4.828125 4.15625 -4.84375 4.15625 -4.875 Z M 4.15625 -8.71875 "/></g></g></g><g fill="#ffffff" fill-opacity="1"><g transform="translate(66.715599, 101.797562)"><g/></g></g><g fill="#ffffff" fill-opacity="1"><g transform="translate(69.305357, 101.798731)"><g><path d="M 6.21875 -0.15625 C 6.238281 -0.132812 6.25 -0.109375 6.25 -0.078125 C 6.25 -0.0546875 6.238281 -0.0351562 6.21875 -0.015625 C 6.195312 -0.00390625 6.171875 0 6.140625 0 L 5.453125 0 C 5.390625 0 5.34375 -0.0234375 5.3125 -0.078125 L 4.796875 -0.828125 C 4.785156 -0.847656 4.769531 -0.859375 4.75 -0.859375 C 4.738281 -0.859375 4.726562 -0.851562 4.71875 -0.84375 C 4.40625 -0.507812 4.082031 -0.265625 3.75 -0.109375 C 3.414062 0.0351562 3.039062 0.109375 2.625 0.109375 C 1.976562 0.109375 1.460938 -0.0664062 1.078125 -0.421875 C 0.703125 -0.785156 0.515625 -1.300781 0.515625 -1.96875 C 0.515625 -2.53125 0.648438 -3.019531 0.921875 -3.4375 C 1.191406 -3.851562 1.5625 -4.265625 2.03125 -4.671875 C 2.0625 -4.671875 2.066406 -4.691406 2.046875 -4.734375 C 1.742188 -5.179688 1.519531 -5.53125 1.375 -5.78125 C 1.226562 -6.03125 1.132812 -6.238281 1.09375 -6.40625 C 1.050781 -6.582031 1.03125 -6.78125 1.03125 -7 C 1.03125 -7.59375 1.195312 -8.066406 1.53125 -8.421875 C 1.863281 -8.773438 2.304688 -8.953125 2.859375 -8.953125 C 3.398438 -8.953125 3.847656 -8.769531 4.203125 -8.40625 C 4.554688 -8.050781 4.734375 -7.585938 4.734375 -7.015625 C 4.734375 -6.503906 4.597656 -6.0625 4.328125 -5.6875 C 4.066406 -5.320312 3.691406 -4.9375 3.203125 -4.53125 C 3.179688 -4.519531 3.179688 -4.5 3.203125 -4.46875 C 3.535156 -3.988281 3.78125 -3.628906 3.9375 -3.390625 L 4.734375 -2.28125 C 4.734375 -2.269531 4.742188 -2.265625 4.765625 -2.265625 C 4.785156 -2.265625 4.796875 -2.269531 4.796875 -2.28125 C 4.921875 -2.457031 5.125 -2.796875 5.40625 -3.296875 C 5.425781 -3.328125 5.453125 -3.347656 5.484375 -3.359375 C 5.515625 -3.367188 5.550781 -3.363281 5.59375 -3.34375 L 6.0625 -3.078125 C 6.132812 -3.035156 6.148438 -2.972656 6.109375 -2.890625 C 5.835938 -2.398438 5.5625 -1.957031 5.28125 -1.5625 C 5.269531 -1.539062 5.269531 -1.515625 5.28125 -1.484375 Z M 2.875 -8.125 C 2.59375 -8.125 2.363281 -8.019531 2.1875 -7.8125 C 2.007812 -7.613281 1.921875 -7.335938 1.921875 -6.984375 C 1.921875 -6.742188 1.960938 -6.515625 2.046875 -6.296875 C 2.140625 -6.085938 2.347656 -5.742188 2.671875 -5.265625 C 2.679688 -5.222656 2.703125 -5.21875 2.734375 -5.25 C 3.085938 -5.550781 3.359375 -5.835938 3.546875 -6.109375 C 3.734375 -6.378906 3.828125 -6.679688 3.828125 -7.015625 C 3.828125 -7.347656 3.738281 -7.613281 3.5625 -7.8125 C 3.382812 -8.019531 3.15625 -8.125 2.875 -8.125 Z M 2.71875 -0.671875 C 3 -0.671875 3.257812 -0.738281 3.5 -0.875 C 3.75 -1.019531 4 -1.234375 4.25 -1.515625 C 4.257812 -1.546875 4.257812 -1.570312 4.25 -1.59375 L 3.640625 -2.46875 L 2.59375 -3.9375 C 2.570312 -3.96875 2.550781 -3.96875 2.53125 -3.9375 C 2.164062 -3.625 1.890625 -3.316406 1.703125 -3.015625 C 1.515625 -2.710938 1.421875 -2.375 1.421875 -2 C 1.421875 -1.601562 1.53125 -1.28125 1.75 -1.03125 C 1.976562 -0.789062 2.300781 -0.671875 2.71875 -0.671875 Z M 2.71875 -0.671875 "/></g></g></g><g fill="#ffffff" fill-opacity="1"><g transform="translate(76.215565, 101.801849)"><g/></g></g><g fill="#ffffff" fill-opacity="1"><g transform="translate(78.805323, 101.803017)"><g><path d="M 4.453125 0 C 4.367188 0 4.316406 -0.03125 4.296875 -0.09375 L 3.015625 -4 C 3.003906 -4.03125 2.984375 -4.046875 2.953125 -4.046875 L 1.859375 -4.046875 C 1.828125 -4.046875 1.8125 -4.03125 1.8125 -4 L 1.8125 -0.125 C 1.8125 -0.0390625 1.769531 0 1.6875 0 L 1.03125 0 C 0.945312 0 0.90625 -0.0390625 0.90625 -0.125 L 0.90625 -8.71875 C 0.90625 -8.800781 0.945312 -8.84375 1.03125 -8.84375 L 3.125 -8.84375 C 3.738281 -8.84375 4.234375 -8.617188 4.609375 -8.171875 C 4.992188 -7.722656 5.1875 -7.132812 5.1875 -6.40625 C 5.1875 -5.863281 5.066406 -5.394531 4.828125 -5 C 4.585938 -4.601562 4.269531 -4.320312 3.875 -4.15625 C 3.832031 -4.144531 3.816406 -4.125 3.828125 -4.09375 L 5.203125 -0.140625 L 5.21875 -0.09375 C 5.21875 -0.03125 5.179688 0 5.109375 0 Z M 1.859375 -8.0625 C 1.828125 -8.0625 1.8125 -8.046875 1.8125 -8.015625 L 1.8125 -4.8125 C 1.8125 -4.78125 1.828125 -4.765625 1.859375 -4.765625 L 3 -4.765625 C 3.382812 -4.765625 3.691406 -4.910156 3.921875 -5.203125 C 4.160156 -5.503906 4.28125 -5.90625 4.28125 -6.40625 C 4.28125 -6.90625 4.160156 -7.304688 3.921875 -7.609375 C 3.691406 -7.910156 3.382812 -8.0625 3 -8.0625 Z M 1.859375 -8.0625 "/></g></g></g><g fill="#ffffff" fill-opacity="1"><g transform="translate(84.464877, 101.805571)"><g><path d="M 4.921875 -8.1875 C 4.921875 -8.101562 4.878906 -8.0625 4.796875 -8.0625 L 1.859375 -8.0625 C 1.828125 -8.0625 1.8125 -8.046875 1.8125 -8.015625 L 1.8125 -4.875 C 1.8125 -4.84375 1.828125 -4.828125 1.859375 -4.828125 L 3.703125 -4.828125 C 3.785156 -4.828125 3.828125 -4.785156 3.828125 -4.703125 L 3.828125 -4.15625 C 3.828125 -4.070312 3.785156 -4.03125 3.703125 -4.03125 L 1.859375 -4.03125 C 1.828125 -4.03125 1.8125 -4.015625 1.8125 -3.984375 L 1.8125 -0.828125 C 1.8125 -0.796875 1.828125 -0.78125 1.859375 -0.78125 L 4.796875 -0.78125 C 4.878906 -0.78125 4.921875 -0.738281 4.921875 -0.65625 L 4.921875 -0.125 C 4.921875 -0.0390625 4.878906 0 4.796875 0 L 1.03125 0 C 0.945312 0 0.90625 -0.0390625 0.90625 -0.125 L 0.90625 -8.71875 C 0.90625 -8.800781 0.945312 -8.84375 1.03125 -8.84375 L 4.796875 -8.84375 C 4.878906 -8.84375 4.921875 -8.800781 4.921875 -8.71875 Z M 4.921875 -8.1875 "/></g></g></g><g fill="#ffffff" fill-opacity="1"><g transform="translate(89.947571, 101.808045)"><g><path d="M 1.03125 0 C 0.945312 0 0.90625 -0.0390625 0.90625 -0.125 L 0.90625 -8.71875 C 0.90625 -8.800781 0.945312 -8.84375 1.03125 -8.84375 L 1.6875 -8.84375 C 1.769531 -8.84375 1.8125 -8.800781 1.8125 -8.71875 L 1.8125 -0.125 C 1.8125 -0.0390625 1.769531 0 1.6875 0 Z M 1.03125 0 "/></g></g></g><g fill="#ffffff" fill-opacity="1"><g transform="translate(92.726814, 101.809299)"><g><path d="M 4.453125 -8.71875 C 4.453125 -8.800781 4.492188 -8.84375 4.578125 -8.84375 L 5.203125 -8.84375 C 5.285156 -8.84375 5.328125 -8.800781 5.328125 -8.71875 L 5.328125 -0.125 C 5.328125 -0.0390625 5.285156 0 5.203125 0 L 4.46875 0 C 4.394531 0 4.347656 -0.03125 4.328125 -0.09375 L 1.859375 -6.640625 C 1.847656 -6.660156 1.832031 -6.664062 1.8125 -6.65625 C 1.800781 -6.65625 1.796875 -6.644531 1.796875 -6.625 L 1.8125 -0.125 C 1.8125 -0.0390625 1.769531 0 1.6875 0 L 1.03125 0 C 0.945312 0 0.90625 -0.0390625 0.90625 -0.125 L 0.90625 -8.71875 C 0.90625 -8.800781 0.945312 -8.84375 1.03125 -8.84375 L 1.765625 -8.84375 C 1.835938 -8.84375 1.882812 -8.8125 1.90625 -8.75 L 4.390625 -2.203125 C 4.398438 -2.171875 4.410156 -2.15625 4.421875 -2.15625 C 4.441406 -2.164062 4.453125 -2.1875 4.453125 -2.21875 Z M 4.453125 -8.71875 "/></g></g></g><g fill="#ffffff" fill-opacity="1"><g transform="translate(99.018016, 101.812138)"><g><path d="M 4.25 0 C 4.175781 0 4.128906 -0.0351562 4.109375 -0.109375 L 3.796875 -1.6875 C 3.796875 -1.695312 3.785156 -1.707031 3.765625 -1.71875 C 3.753906 -1.726562 3.742188 -1.734375 3.734375 -1.734375 L 1.4375 -1.734375 C 1.425781 -1.734375 1.410156 -1.726562 1.390625 -1.71875 C 1.378906 -1.707031 1.375 -1.695312 1.375 -1.6875 L 1.0625 -0.109375 C 1.050781 -0.0351562 1.003906 0 0.921875 0 L 0.28125 0 C 0.238281 0 0.207031 -0.0078125 0.1875 -0.03125 C 0.164062 -0.0625 0.160156 -0.0976562 0.171875 -0.140625 L 2.0625 -8.734375 C 2.070312 -8.804688 2.117188 -8.84375 2.203125 -8.84375 L 2.953125 -8.84375 C 3.035156 -8.84375 3.082031 -8.804688 3.09375 -8.734375 L 5.015625 -0.140625 L 5.015625 -0.109375 C 5.015625 -0.0351562 4.976562 0 4.90625 0 Z M 1.546875 -2.515625 C 1.546875 -2.484375 1.554688 -2.46875 1.578125 -2.46875 L 3.578125 -2.46875 C 3.597656 -2.46875 3.609375 -2.484375 3.609375 -2.515625 L 2.609375 -7.484375 C 2.597656 -7.503906 2.585938 -7.515625 2.578125 -7.515625 C 2.566406 -7.515625 2.554688 -7.503906 2.546875 -7.484375 Z M 1.546875 -2.515625 "/></g></g></g><g fill="#ffffff" fill-opacity="1"><g transform="translate(104.264786, 101.814505)"><g/></g></g><g fill="#ffffff" fill-opacity="1"><g transform="translate(324.42506, 101.790806)"><g><path d="M 4.796875 -8.84375 C 4.878906 -8.84375 4.921875 -8.800781 4.921875 -8.71875 L 4.921875 -8.1875 C 4.921875 -8.101562 4.878906 -8.0625 4.796875 -8.0625 L 3.125 -8.0625 C 3.09375 -8.0625 3.078125 -8.046875 3.078125 -8.015625 L 3.078125 -0.125 C 3.078125 -0.0390625 3.03125 0 2.9375 0 L 2.296875 0 C 2.210938 0 2.171875 -0.0390625 2.171875 -0.125 L 2.171875 -8.015625 C 2.171875 -8.046875 2.15625 -8.0625 2.125 -8.0625 L 0.5625 -8.0625 C 0.476562 -8.0625 0.4375 -8.101562 0.4375 -8.1875 L 0.4375 -8.71875 C 0.4375 -8.800781 0.476562 -8.84375 0.5625 -8.84375 Z M 4.796875 -8.84375 "/></g></g></g><g fill="#ffffff" fill-opacity="1"><g transform="translate(329.83195, 101.793246)"><g><path d="M 4.15625 -8.71875 C 4.15625 -8.800781 4.195312 -8.84375 4.28125 -8.84375 L 4.9375 -8.84375 C 5.019531 -8.84375 5.0625 -8.800781 5.0625 -8.71875 L 5.0625 -0.125 C 5.0625 -0.0390625 5.019531 0 4.9375 0 L 4.28125 0 C 4.195312 0 4.15625 -0.0390625 4.15625 -0.125 L 4.15625 -3.984375 C 4.15625 -4.015625 4.140625 -4.03125 4.109375 -4.03125 L 1.859375 -4.03125 C 1.828125 -4.03125 1.8125 -4.015625 1.8125 -3.984375 L 1.8125 -0.125 C 1.8125 -0.0390625 1.769531 0 1.6875 0 L 1.03125 0 C 0.945312 0 0.90625 -0.0390625 0.90625 -0.125 L 0.90625 -8.71875 C 0.90625 -8.800781 0.945312 -8.84375 1.03125 -8.84375 L 1.6875 -8.84375 C 1.769531 -8.84375 1.8125 -8.800781 1.8125 -8.71875 L 1.8125 -4.875 C 1.8125 -4.84375 1.828125 -4.828125 1.859375 -4.828125 L 4.109375 -4.828125 C 4.140625 -4.828125 4.15625 -4.84375 4.15625 -4.875 Z M 4.15625 -8.71875 "/></g></g></g><g fill="#ffffff" fill-opacity="1"><g transform="translate(335.857862, 101.795965)"><g><path d="M 4.921875 -8.1875 C 4.921875 -8.101562 4.878906 -8.0625 4.796875 -8.0625 L 1.859375 -8.0625 C 1.828125 -8.0625 1.8125 -8.046875 1.8125 -8.015625 L 1.8125 -4.875 C 1.8125 -4.84375 1.828125 -4.828125 1.859375 -4.828125 L 3.703125 -4.828125 C 3.785156 -4.828125 3.828125 -4.785156 3.828125 -4.703125 L 3.828125 -4.15625 C 3.828125 -4.070312 3.785156 -4.03125 3.703125 -4.03125 L 1.859375 -4.03125 C 1.828125 -4.03125 1.8125 -4.015625 1.8125 -3.984375 L 1.8125 -0.828125 C 1.8125 -0.796875 1.828125 -0.78125 1.859375 -0.78125 L 4.796875 -0.78125 C 4.878906 -0.78125 4.921875 -0.738281 4.921875 -0.65625 L 4.921875 -0.125 C 4.921875 -0.0390625 4.878906 0 4.796875 0 L 1.03125 0 C 0.945312 0 0.90625 -0.0390625 0.90625 -0.125 L 0.90625 -8.71875 C 0.90625 -8.800781 0.945312 -8.84375 1.03125 -8.84375 L 4.796875 -8.84375 C 4.878906 -8.84375 4.921875 -8.800781 4.921875 -8.71875 Z M 4.921875 -8.1875 "/></g></g></g><g fill="#ffffff" fill-opacity="1"><g transform="translate(341.340555, 101.798439)"><g/></g></g><g fill="#ffffff" fill-opacity="1"><g transform="translate(343.930313, 101.799607)"><g><path d="M 4.453125 -8.71875 C 4.453125 -8.800781 4.492188 -8.84375 4.578125 -8.84375 L 5.203125 -8.84375 C 5.285156 -8.84375 5.328125 -8.800781 5.328125 -8.71875 L 5.328125 -0.125 C 5.328125 -0.0390625 5.285156 0 5.203125 0 L 4.46875 0 C 4.394531 0 4.347656 -0.03125 4.328125 -0.09375 L 1.859375 -6.640625 C 1.847656 -6.660156 1.832031 -6.664062 1.8125 -6.65625 C 1.800781 -6.65625 1.796875 -6.644531 1.796875 -6.625 L 1.8125 -0.125 C 1.8125 -0.0390625 1.769531 0 1.6875 0 L 1.03125 0 C 0.945312 0 0.90625 -0.0390625 0.90625 -0.125 L 0.90625 -8.71875 C 0.90625 -8.800781 0.945312 -8.84375 1.03125 -8.84375 L 1.765625 -8.84375 C 1.835938 -8.84375 1.882812 -8.8125 1.90625 -8.75 L 4.390625 -2.203125 C 4.398438 -2.171875 4.410156 -2.15625 4.421875 -2.15625 C 4.441406 -2.164062 4.453125 -2.1875 4.453125 -2.21875 Z M 4.453125 -8.71875 "/></g></g></g><g fill="#ffffff" fill-opacity="1"><g transform="translate(350.221515, 101.802446)"><g><path d="M 4.25 0 C 4.175781 0 4.128906 -0.0351562 4.109375 -0.109375 L 3.796875 -1.6875 C 3.796875 -1.695312 3.785156 -1.707031 3.765625 -1.71875 C 3.753906 -1.726562 3.742188 -1.734375 3.734375 -1.734375 L 1.4375 -1.734375 C 1.425781 -1.734375 1.410156 -1.726562 1.390625 -1.71875 C 1.378906 -1.707031 1.375 -1.695312 1.375 -1.6875 L 1.0625 -0.109375 C 1.050781 -0.0351562 1.003906 0 0.921875 0 L 0.28125 0 C 0.238281 0 0.207031 -0.0078125 0.1875 -0.03125 C 0.164062 -0.0625 0.160156 -0.0976562 0.171875 -0.140625 L 2.0625 -8.734375 C 2.070312 -8.804688 2.117188 -8.84375 2.203125 -8.84375 L 2.953125 -8.84375 C 3.035156 -8.84375 3.082031 -8.804688 3.09375 -8.734375 L 5.015625 -0.140625 L 5.015625 -0.109375 C 5.015625 -0.0351562 4.976562 0 4.90625 0 Z M 1.546875 -2.515625 C 1.546875 -2.484375 1.554688 -2.46875 1.578125 -2.46875 L 3.578125 -2.46875 C 3.597656 -2.46875 3.609375 -2.484375 3.609375 -2.515625 L 2.609375 -7.484375 C 2.597656 -7.503906 2.585938 -7.515625 2.578125 -7.515625 C 2.566406 -7.515625 2.554688 -7.503906 2.546875 -7.484375 Z M 1.546875 -2.515625 "/></g></g></g><g fill="#ffffff" fill-opacity="1"><g transform="translate(355.464173, 101.804812)"><g><path d="M 2.625 0.09375 C 2 0.09375 1.492188 -0.109375 1.109375 -0.515625 C 0.722656 -0.929688 0.53125 -1.472656 0.53125 -2.140625 L 0.53125 -2.421875 C 0.53125 -2.503906 0.570312 -2.546875 0.65625 -2.546875 L 1.28125 -2.546875 C 1.363281 -2.546875 1.40625 -2.503906 1.40625 -2.421875 L 1.40625 -2.171875 C 1.40625 -1.722656 1.515625 -1.363281 1.734375 -1.09375 C 1.960938 -0.820312 2.257812 -0.6875 2.625 -0.6875 C 2.976562 -0.6875 3.273438 -0.816406 3.515625 -1.078125 C 3.753906 -1.335938 3.875 -1.679688 3.875 -2.109375 C 3.875 -2.398438 3.816406 -2.644531 3.703125 -2.84375 C 3.585938 -3.050781 3.4375 -3.234375 3.25 -3.390625 C 3.070312 -3.546875 2.769531 -3.785156 2.34375 -4.109375 C 1.925781 -4.421875 1.59375 -4.6875 1.34375 -4.90625 C 1.101562 -5.132812 0.90625 -5.40625 0.75 -5.71875 C 0.59375 -6.03125 0.515625 -6.394531 0.515625 -6.8125 C 0.515625 -7.46875 0.703125 -7.988281 1.078125 -8.375 C 1.460938 -8.757812 1.957031 -8.953125 2.5625 -8.953125 C 3.207031 -8.953125 3.71875 -8.742188 4.09375 -8.328125 C 4.476562 -7.910156 4.671875 -7.351562 4.671875 -6.65625 L 4.671875 -6.34375 C 4.671875 -6.257812 4.628906 -6.21875 4.546875 -6.21875 L 3.921875 -6.21875 C 3.835938 -6.21875 3.796875 -6.257812 3.796875 -6.34375 L 3.796875 -6.671875 C 3.796875 -7.117188 3.679688 -7.476562 3.453125 -7.75 C 3.234375 -8.03125 2.9375 -8.171875 2.5625 -8.171875 C 2.226562 -8.171875 1.953125 -8.050781 1.734375 -7.8125 C 1.515625 -7.570312 1.40625 -7.226562 1.40625 -6.78125 C 1.40625 -6.519531 1.453125 -6.289062 1.546875 -6.09375 C 1.640625 -5.894531 1.785156 -5.707031 1.984375 -5.53125 C 2.179688 -5.351562 2.46875 -5.125 2.84375 -4.84375 C 3.351562 -4.46875 3.726562 -4.164062 3.96875 -3.9375 C 4.21875 -3.707031 4.410156 -3.453125 4.546875 -3.171875 C 4.679688 -2.898438 4.75 -2.570312 4.75 -2.1875 C 4.75 -1.5 4.550781 -0.945312 4.15625 -0.53125 C 3.757812 -0.113281 3.25 0.09375 2.625 0.09375 Z M 2.625 0.09375 "/></g></g></g><g fill="#ffffff" fill-opacity="1"><g transform="translate(360.782635, 101.807212)"><g><path d="M 4.15625 -8.71875 C 4.15625 -8.800781 4.195312 -8.84375 4.28125 -8.84375 L 4.9375 -8.84375 C 5.019531 -8.84375 5.0625 -8.800781 5.0625 -8.71875 L 5.0625 -0.125 C 5.0625 -0.0390625 5.019531 0 4.9375 0 L 4.28125 0 C 4.195312 0 4.15625 -0.0390625 4.15625 -0.125 L 4.15625 -3.984375 C 4.15625 -4.015625 4.140625 -4.03125 4.109375 -4.03125 L 1.859375 -4.03125 C 1.828125 -4.03125 1.8125 -4.015625 1.8125 -3.984375 L 1.8125 -0.125 C 1.8125 -0.0390625 1.769531 0 1.6875 0 L 1.03125 0 C 0.945312 0 0.90625 -0.0390625 0.90625 -0.125 L 0.90625 -8.71875 C 0.90625 -8.800781 0.945312 -8.84375 1.03125 -8.84375 L 1.6875 -8.84375 C 1.769531 -8.84375 1.8125 -8.800781 1.8125 -8.71875 L 1.8125 -4.875 C 1.8125 -4.84375 1.828125 -4.828125 1.859375 -4.828125 L 4.109375 -4.828125 C 4.140625 -4.828125 4.15625 -4.84375 4.15625 -4.875 Z M 4.15625 -8.71875 "/></g></g></g></svg>