<svg xmlns="http://www.w3.org/2000/svg" xmlns:xlink="http://www.w3.org/1999/xlink" width="559" zoomAndPan="magnify" viewBox="0 0 419.25 297.749991" height="397" preserveAspectRatio="xMidYMid meet" version="1.0"><defs><g/></defs><g fill="#ffffff" fill-opacity="1"><g transform="translate(121.792535, 181.764429)"><g><path d="M 3.203125 0 L 3.203125 -7.265625 L 0.40625 -7.265625 L 0.40625 -8.265625 L 7.015625 -8.265625 L 7.015625 -7.265625 L 4.234375 -7.265625 L 4.234375 0 Z M 3.203125 0 "/></g></g></g><g fill="#ffffff" fill-opacity="1"><g transform="translate(132.398421, 181.764429)"><g><path d="M 6.625 0 L 6.625 -3.71875 L 2.234375 -3.71875 L 2.234375 0 L 1.203125 0 L 1.203125 -8.265625 L 2.234375 -8.265625 L 2.234375 -4.703125 L 6.625 -4.703125 L 6.625 -8.265625 L 7.65625 -8.265625 L 7.65625 0 Z M 6.625 0 "/></g></g></g><g fill="#ffffff" fill-opacity="1"><g transform="translate(144.431799, 181.764429)"><g><path d="M 1.203125 0 L 1.203125 -8.265625 L 6.21875 -8.265625 L 6.21875 -7.296875 L 2.234375 -7.296875 L 2.234375 -4.6875 L 5.921875 -4.6875 L 5.921875 -3.734375 L 2.234375 -3.734375 L 2.234375 -0.96875 L 6.34375 -0.96875 L 6.34375 0 Z M 1.203125 0 "/></g></g></g><g fill="#ffffff" fill-opacity="1"><g transform="translate(154.71915, 181.764429)"><g/></g></g><g fill="#ffffff" fill-opacity="1"><g transform="translate(160.818415, 181.764429)"><g><path d="M 1.203125 0 L 1.203125 -8.265625 L 2.1875 -8.265625 L 6.75 -1.796875 L 6.75 -8.265625 L 7.765625 -8.265625 L 7.765625 0 L 6.796875 0 L 2.234375 -6.46875 L 2.234375 0 Z M 1.203125 0 "/></g></g></g><g fill="#ffffff" fill-opacity="1"><g transform="translate(172.957971, 181.764429)"><g><path d="M 0.203125 0 L 3.59375 -8.265625 L 4.5625 -8.265625 L 7.96875 0 L 6.859375 0 L 6.09375 -1.875 L 2.0625 -1.875 L 1.3125 0 Z M 2.46875 -2.84375 L 5.703125 -2.84375 L 4.078125 -6.8125 Z M 2.46875 -2.84375 "/></g></g></g><g fill="#ffffff" fill-opacity="1"><g transform="translate(184.295298, 181.764429)"><g><path d="M 3.953125 0.15625 C 3.296875 0.15625 2.722656 0.046875 2.234375 -0.171875 C 1.753906 -0.398438 1.378906 -0.71875 1.109375 -1.125 C 0.847656 -1.53125 0.710938 -2 0.703125 -2.53125 L 1.75 -2.53125 C 1.757812 -2.007812 1.96875 -1.597656 2.375 -1.296875 C 2.78125 -0.992188 3.304688 -0.84375 3.953125 -0.84375 C 4.535156 -0.84375 4.992188 -0.953125 5.328125 -1.171875 C 5.671875 -1.398438 5.84375 -1.722656 5.84375 -2.140625 C 5.84375 -2.523438 5.675781 -2.832031 5.34375 -3.0625 C 5.019531 -3.289062 4.484375 -3.492188 3.734375 -3.671875 C 2.722656 -3.910156 1.976562 -4.21875 1.5 -4.59375 C 1.03125 -4.976562 0.796875 -5.492188 0.796875 -6.140625 C 0.796875 -6.835938 1.0625 -7.390625 1.59375 -7.796875 C 2.125 -8.203125 2.84375 -8.40625 3.75 -8.40625 C 4.675781 -8.40625 5.410156 -8.171875 5.953125 -7.703125 C 6.492188 -7.242188 6.765625 -6.613281 6.765625 -5.8125 L 5.75 -5.8125 C 5.738281 -6.3125 5.550781 -6.703125 5.1875 -6.984375 C 4.832031 -7.273438 4.351562 -7.421875 3.75 -7.421875 C 3.15625 -7.421875 2.691406 -7.300781 2.359375 -7.0625 C 2.023438 -6.832031 1.859375 -6.523438 1.859375 -6.140625 C 1.859375 -5.796875 2.015625 -5.507812 2.328125 -5.28125 C 2.640625 -5.050781 3.195312 -4.835938 4 -4.640625 C 5.050781 -4.378906 5.800781 -4.050781 6.25 -3.65625 C 6.695312 -3.269531 6.921875 -2.773438 6.921875 -2.171875 C 6.921875 -1.453125 6.648438 -0.882812 6.109375 -0.46875 C 5.578125 -0.0507812 4.859375 0.15625 3.953125 0.15625 Z M 3.953125 0.15625 "/></g></g></g><g fill="#ffffff" fill-opacity="1"><g transform="translate(195.101735, 181.764429)"><g><path d="M 6.625 0 L 6.625 -3.71875 L 2.234375 -3.71875 L 2.234375 0 L 1.203125 0 L 1.203125 -8.265625 L 2.234375 -8.265625 L 2.234375 -4.703125 L 6.625 -4.703125 L 6.625 -8.265625 L 7.65625 -8.265625 L 7.65625 0 Z M 6.625 0 "/></g></g></g><g fill="#ffffff" fill-opacity="1"><g transform="translate(207.13511, 181.764429)"><g><path d="M 1.125 1.078125 C 1.351562 1.003906 1.523438 0.875 1.640625 0.6875 C 1.753906 0.5 1.804688 0.28125 1.796875 0.03125 C 1.703125 0.0625 1.597656 0.078125 1.484375 0.078125 C 1.265625 0.078125 1.082031 0.00390625 0.9375 -0.140625 C 0.789062 -0.285156 0.71875 -0.46875 0.71875 -0.6875 C 0.71875 -0.90625 0.789062 -1.085938 0.9375 -1.234375 C 1.09375 -1.378906 1.289062 -1.453125 1.53125 -1.453125 C 1.832031 -1.453125 2.078125 -1.335938 2.265625 -1.109375 C 2.460938 -0.890625 2.5625 -0.59375 2.5625 -0.21875 C 2.5625 0.101562 2.5 0.40625 2.375 0.6875 C 2.25 0.96875 2.078125 1.195312 1.859375 1.375 C 1.648438 1.5625 1.40625 1.671875 1.125 1.703125 Z M 1.125 1.078125 "/></g></g></g><g fill="#ffffff" fill-opacity="1"><g transform="translate(213.588292, 181.764429)"><g/></g></g><g fill="#ffffff" fill-opacity="1"><g transform="translate(219.687553, 181.764429)"><g><path d="M 4.859375 0.15625 C 4.253906 0.15625 3.695312 0.0507812 3.1875 -0.15625 C 2.675781 -0.375 2.234375 -0.671875 1.859375 -1.046875 C 1.484375 -1.429688 1.191406 -1.882812 0.984375 -2.40625 C 0.785156 -2.9375 0.6875 -3.507812 0.6875 -4.125 C 0.6875 -4.75 0.785156 -5.320312 0.984375 -5.84375 C 1.191406 -6.363281 1.484375 -6.816406 1.859375 -7.203125 C 2.234375 -7.585938 2.675781 -7.882812 3.1875 -8.09375 C 3.695312 -8.300781 4.253906 -8.40625 4.859375 -8.40625 C 5.515625 -8.40625 6.113281 -8.285156 6.65625 -8.046875 C 7.207031 -7.804688 7.675781 -7.460938 8.0625 -7.015625 C 8.445312 -6.578125 8.734375 -6.054688 8.921875 -5.453125 L 7.8125 -5.453125 C 7.59375 -6.046875 7.222656 -6.515625 6.703125 -6.859375 C 6.179688 -7.203125 5.578125 -7.375 4.890625 -7.375 C 4.273438 -7.375 3.734375 -7.234375 3.265625 -6.953125 C 2.796875 -6.679688 2.425781 -6.300781 2.15625 -5.8125 C 1.882812 -5.320312 1.75 -4.757812 1.75 -4.125 C 1.75 -3.488281 1.882812 -2.925781 2.15625 -2.4375 C 2.425781 -1.945312 2.796875 -1.566406 3.265625 -1.296875 C 3.734375 -1.023438 4.273438 -0.890625 4.890625 -0.890625 C 5.597656 -0.890625 6.222656 -1.066406 6.765625 -1.421875 C 7.304688 -1.785156 7.679688 -2.28125 7.890625 -2.90625 L 8.984375 -2.90625 C 8.816406 -2.289062 8.535156 -1.753906 8.140625 -1.296875 C 7.742188 -0.835938 7.265625 -0.476562 6.703125 -0.21875 C 6.140625 0.03125 5.523438 0.15625 4.859375 0.15625 Z M 4.859375 0.15625 "/></g></g></g><g fill="#ffffff" fill-opacity="1"><g transform="translate(232.487755, 181.764429)"><g><path d="M 0.203125 0 L 3.59375 -8.265625 L 4.5625 -8.265625 L 7.96875 0 L 6.859375 0 L 6.09375 -1.875 L 2.0625 -1.875 L 1.3125 0 Z M 2.46875 -2.84375 L 5.703125 -2.84375 L 4.078125 -6.8125 Z M 2.46875 -2.84375 "/></g></g></g><g fill="#ffffff" fill-opacity="1"><g transform="translate(243.825078, 181.764429)"><g><path d="M 1.203125 0 L 1.203125 -8.265625 L 2.234375 -8.265625 L 2.234375 -0.984375 L 6.25 -0.984375 L 6.25 0 Z M 1.203125 0 "/></g></g></g><g fill="#ffffff" fill-opacity="1"><g transform="translate(253.616933, 181.764429)"><g><path d="M 4.890625 0.15625 C 4.273438 0.15625 3.710938 0.0507812 3.203125 -0.15625 C 2.691406 -0.375 2.25 -0.671875 1.875 -1.046875 C 1.5 -1.429688 1.207031 -1.882812 1 -2.40625 C 0.789062 -2.9375 0.6875 -3.507812 0.6875 -4.125 C 0.6875 -4.75 0.785156 -5.320312 0.984375 -5.84375 C 1.191406 -6.363281 1.484375 -6.816406 1.859375 -7.203125 C 2.242188 -7.585938 2.6875 -7.882812 3.1875 -8.09375 C 3.695312 -8.300781 4.253906 -8.40625 4.859375 -8.40625 C 5.484375 -8.40625 6.0625 -8.289062 6.59375 -8.0625 C 7.132812 -7.84375 7.597656 -7.523438 7.984375 -7.109375 C 8.378906 -6.703125 8.660156 -6.226562 8.828125 -5.6875 L 7.703125 -5.6875 C 7.441406 -6.21875 7.066406 -6.628906 6.578125 -6.921875 C 6.085938 -7.222656 5.523438 -7.375 4.890625 -7.375 C 4.273438 -7.375 3.726562 -7.234375 3.25 -6.953125 C 2.78125 -6.679688 2.410156 -6.300781 2.140625 -5.8125 C 1.878906 -5.320312 1.75 -4.757812 1.75 -4.125 C 1.75 -3.488281 1.882812 -2.925781 2.15625 -2.4375 C 2.425781 -1.945312 2.796875 -1.566406 3.265625 -1.296875 C 3.742188 -1.023438 4.289062 -0.890625 4.90625 -0.890625 C 5.46875 -0.890625 5.960938 -1 6.390625 -1.21875 C 6.828125 -1.4375 7.179688 -1.738281 7.453125 -2.125 C 7.722656 -2.519531 7.894531 -2.972656 7.96875 -3.484375 L 4.59375 -3.484375 L 4.59375 -4.484375 L 9.078125 -4.484375 C 9.097656 -3.578125 8.929688 -2.773438 8.578125 -2.078125 C 8.234375 -1.378906 7.742188 -0.832031 7.109375 -0.4375 C 6.472656 -0.0390625 5.734375 0.15625 4.890625 0.15625 Z M 4.890625 0.15625 "/></g></g></g><g fill="#ffffff" fill-opacity="1"><g transform="translate(266.523313, 181.764429)"><g><path d="M 0.203125 0 L 3.59375 -8.265625 L 4.5625 -8.265625 L 7.96875 0 L 6.859375 0 L 6.09375 -1.875 L 2.0625 -1.875 L 1.3125 0 Z M 2.46875 -2.84375 L 5.703125 -2.84375 L 4.078125 -6.8125 Z M 2.46875 -2.84375 "/></g></g></g><g fill="#ffffff" fill-opacity="1"><g transform="translate(277.860636, 181.764429)"><g><path d="M 1.203125 0 L 1.203125 -8.265625 L 4.359375 -8.265625 C 4.929688 -8.265625 5.425781 -8.15625 5.84375 -7.9375 C 6.269531 -7.71875 6.601562 -7.410156 6.84375 -7.015625 C 7.082031 -6.617188 7.203125 -6.148438 7.203125 -5.609375 C 7.203125 -4.929688 7.023438 -4.375 6.671875 -3.9375 C 6.328125 -3.507812 5.851562 -3.21875 5.25 -3.0625 L 7.328125 0 L 6.078125 0 L 4.0625 -2.96875 L 2.234375 -2.96875 L 2.234375 0 Z M 2.234375 -3.953125 L 4.234375 -3.953125 C 4.835938 -3.953125 5.304688 -4.09375 5.640625 -4.375 C 5.972656 -4.664062 6.140625 -5.078125 6.140625 -5.609375 C 6.140625 -6.128906 5.972656 -6.535156 5.640625 -6.828125 C 5.304688 -7.117188 4.835938 -7.265625 4.234375 -7.265625 L 2.234375 -7.265625 Z M 2.234375 -3.953125 "/></g></g></g><g fill="#ffffff" fill-opacity="1"><g transform="translate(289.068184, 181.764429)"><g><path d="M 3.296875 0 L 3.296875 -2.96875 L 0.203125 -8.265625 L 1.40625 -8.265625 L 2.75 -5.953125 L 3.828125 -4.078125 L 6.25 -8.265625 L 7.421875 -8.265625 L 4.3125 -2.96875 L 4.3125 0 Z M 3.296875 0 "/></g></g></g><g fill="#ffffff" fill-opacity="1"><g transform="translate(120.334067, 59.515066)"><g><path d="M 3.953125 0.15625 C 3.296875 0.15625 2.722656 0.046875 2.234375 -0.171875 C 1.753906 -0.398438 1.378906 -0.71875 1.109375 -1.125 C 0.847656 -1.53125 0.710938 -2 0.703125 -2.53125 L 1.75 -2.53125 C 1.757812 -2.007812 1.96875 -1.597656 2.375 -1.296875 C 2.78125 -0.992188 3.304688 -0.84375 3.953125 -0.84375 C 4.535156 -0.84375 4.992188 -0.953125 5.328125 -1.171875 C 5.671875 -1.398438 5.84375 -1.722656 5.84375 -2.140625 C 5.84375 -2.523438 5.675781 -2.832031 5.34375 -3.0625 C 5.019531 -3.289062 4.484375 -3.492188 3.734375 -3.671875 C 2.722656 -3.910156 1.976562 -4.21875 1.5 -4.59375 C 1.03125 -4.976562 0.796875 -5.492188 0.796875 -6.140625 C 0.796875 -6.835938 1.0625 -7.390625 1.59375 -7.796875 C 2.125 -8.203125 2.84375 -8.40625 3.75 -8.40625 C 4.675781 -8.40625 5.410156 -8.171875 5.953125 -7.703125 C 6.492188 -7.242188 6.765625 -6.613281 6.765625 -5.8125 L 5.75 -5.8125 C 5.738281 -6.3125 5.550781 -6.703125 5.1875 -6.984375 C 4.832031 -7.273438 4.351562 -7.421875 3.75 -7.421875 C 3.15625 -7.421875 2.691406 -7.300781 2.359375 -7.0625 C 2.023438 -6.832031 1.859375 -6.523438 1.859375 -6.140625 C 1.859375 -5.796875 2.015625 -5.507812 2.328125 -5.28125 C 2.640625 -5.050781 3.195312 -4.835938 4 -4.640625 C 5.050781 -4.378906 5.800781 -4.050781 6.25 -3.65625 C 6.695312 -3.269531 6.921875 -2.773438 6.921875 -2.171875 C 6.921875 -1.453125 6.648438 -0.882812 6.109375 -0.46875 C 5.578125 -0.0507812 4.859375 0.15625 3.953125 0.15625 Z M 3.953125 0.15625 "/></g></g></g><g fill="#ffffff" fill-opacity="1"><g transform="translate(131.140503, 59.515066)"><g><path d="M 3.203125 0 L 3.203125 -7.265625 L 0.40625 -7.265625 L 0.40625 -8.265625 L 7.015625 -8.265625 L 7.015625 -7.265625 L 4.234375 -7.265625 L 4.234375 0 Z M 3.203125 0 "/></g></g></g><g fill="#ffffff" fill-opacity="1"><g transform="translate(141.746388, 59.515066)"><g><path d="M 1.203125 0 L 1.203125 -8.265625 L 6.21875 -8.265625 L 6.21875 -7.296875 L 2.234375 -7.296875 L 2.234375 -4.6875 L 5.921875 -4.6875 L 5.921875 -3.734375 L 2.234375 -3.734375 L 2.234375 -0.96875 L 6.34375 -0.96875 L 6.34375 0 Z M 1.203125 0 "/></g></g></g><g fill="#ffffff" fill-opacity="1"><g transform="translate(152.03374, 59.515066)"><g><path d="M 1.203125 0 L 1.203125 -8.265625 L 4 -8.265625 C 4.625 -8.265625 5.164062 -8.148438 5.625 -7.921875 C 6.082031 -7.691406 6.4375 -7.367188 6.6875 -6.953125 C 6.9375 -6.535156 7.0625 -6.046875 7.0625 -5.484375 C 7.0625 -4.921875 6.9375 -4.429688 6.6875 -4.015625 C 6.4375 -3.597656 6.082031 -3.273438 5.625 -3.046875 C 5.164062 -2.828125 4.625 -2.71875 4 -2.71875 L 2.234375 -2.71875 L 2.234375 0 Z M 2.234375 -3.6875 L 3.96875 -3.6875 C 5.320312 -3.6875 6 -4.28125 6 -5.46875 C 6 -6.664062 5.320312 -7.265625 3.96875 -7.265625 L 2.234375 -7.265625 Z M 2.234375 -3.6875 "/></g></g></g><g fill="#ffffff" fill-opacity="1"><g transform="translate(162.745804, 59.515066)"><g><path d="M 6.625 0 L 6.625 -3.71875 L 2.234375 -3.71875 L 2.234375 0 L 1.203125 0 L 1.203125 -8.265625 L 2.234375 -8.265625 L 2.234375 -4.703125 L 6.625 -4.703125 L 6.625 -8.265625 L 7.65625 -8.265625 L 7.65625 0 Z M 6.625 0 "/></g></g></g><g fill="#ffffff" fill-opacity="1"><g transform="translate(174.779183, 59.515066)"><g><path d="M 0.203125 0 L 3.59375 -8.265625 L 4.5625 -8.265625 L 7.96875 0 L 6.859375 0 L 6.09375 -1.875 L 2.0625 -1.875 L 1.3125 0 Z M 2.46875 -2.84375 L 5.703125 -2.84375 L 4.078125 -6.8125 Z M 2.46875 -2.84375 "/></g></g></g><g fill="#ffffff" fill-opacity="1"><g transform="translate(186.116506, 59.515066)"><g><path d="M 1.203125 0 L 1.203125 -8.265625 L 2.1875 -8.265625 L 6.75 -1.796875 L 6.75 -8.265625 L 7.765625 -8.265625 L 7.765625 0 L 6.796875 0 L 2.234375 -6.46875 L 2.234375 0 Z M 1.203125 0 "/></g></g></g><g fill="#ffffff" fill-opacity="1"><g transform="translate(198.256058, 59.515066)"><g><path d="M 1.203125 0 L 1.203125 -8.265625 L 2.234375 -8.265625 L 2.234375 0 Z M 1.203125 0 "/></g></g></g><g fill="#ffffff" fill-opacity="1"><g transform="translate(204.874403, 59.515066)"><g><path d="M 1.203125 0 L 1.203125 -8.265625 L 6.21875 -8.265625 L 6.21875 -7.296875 L 2.234375 -7.296875 L 2.234375 -4.6875 L 5.921875 -4.6875 L 5.921875 -3.734375 L 2.234375 -3.734375 L 2.234375 -0.96875 L 6.34375 -0.96875 L 6.34375 0 Z M 1.203125 0 "/></g></g></g><g fill="#ffffff" fill-opacity="1"><g transform="translate(215.173799, 59.515066)"><g/></g></g><g fill="#ffffff" fill-opacity="1"><g transform="translate(221.273062, 59.515066)"><g/></g></g><g fill="#ffffff" fill-opacity="1"><g transform="translate(227.372326, 59.515066)"><g/></g></g><g fill="#ffffff" fill-opacity="1"><g transform="translate(233.471589, 59.515066)"><g/></g></g><g fill="#ffffff" fill-opacity="1"><g transform="translate(239.570854, 59.515066)"><g/></g></g><g fill="#ffffff" fill-opacity="1"><g transform="translate(245.68104, 59.515066)"><g><path d="M 1.203125 0 L 1.203125 -8.265625 L 4.359375 -8.265625 C 4.929688 -8.265625 5.425781 -8.15625 5.84375 -7.9375 C 6.269531 -7.71875 6.601562 -7.410156 6.84375 -7.015625 C 7.082031 -6.617188 7.203125 -6.148438 7.203125 -5.609375 C 7.203125 -4.929688 7.023438 -4.375 6.671875 -3.9375 C 6.328125 -3.507812 5.851562 -3.21875 5.25 -3.0625 L 7.328125 0 L 6.078125 0 L 4.0625 -2.96875 L 2.234375 -2.96875 L 2.234375 0 Z M 2.234375 -3.953125 L 4.234375 -3.953125 C 4.835938 -3.953125 5.304688 -4.09375 5.640625 -4.375 C 5.972656 -4.664062 6.140625 -5.078125 6.140625 -5.609375 C 6.140625 -6.128906 5.972656 -6.535156 5.640625 -6.828125 C 5.304688 -7.117188 4.835938 -7.265625 4.234375 -7.265625 L 2.234375 -7.265625 Z M 2.234375 -3.953125 "/></g></g></g><g fill="#ffffff" fill-opacity="1"><g transform="translate(256.888591, 59.515066)"><g><path d="M 1.203125 0 L 1.203125 -8.265625 L 6.21875 -8.265625 L 6.21875 -7.296875 L 2.234375 -7.296875 L 2.234375 -4.6875 L 5.921875 -4.6875 L 5.921875 -3.734375 L 2.234375 -3.734375 L 2.234375 -0.96875 L 6.34375 -0.96875 L 6.34375 0 Z M 1.203125 0 "/></g></g></g><g fill="#ffffff" fill-opacity="1"><g transform="translate(267.175943, 59.515066)"><g><path d="M 1.203125 0 L 1.203125 -8.265625 L 2.234375 -8.265625 L 2.234375 0 Z M 1.203125 0 "/></g></g></g><g fill="#ffffff" fill-opacity="1"><g transform="translate(273.79429, 59.515066)"><g><path d="M 1.203125 0 L 1.203125 -8.265625 L 2.1875 -8.265625 L 6.75 -1.796875 L 6.75 -8.265625 L 7.765625 -8.265625 L 7.765625 0 L 6.796875 0 L 2.234375 -6.46875 L 2.234375 0 Z M 1.203125 0 "/></g></g></g><g fill="#ffffff" fill-opacity="1"><g transform="translate(285.933846, 59.515066)"><g><path d="M 0.203125 0 L 3.59375 -8.265625 L 4.5625 -8.265625 L 7.96875 0 L 6.859375 0 L 6.09375 -1.875 L 2.0625 -1.875 L 1.3125 0 Z M 2.46875 -2.84375 L 5.703125 -2.84375 L 4.078125 -6.8125 Z M 2.46875 -2.84375 "/></g></g></g><g fill="#ffffff" fill-opacity="1"><g transform="translate(222.748853, 59.612522)"><g><path d="M 7.25 -9.59375 C 7.84375 -9.59375 8.320312 -9.488281 8.6875 -9.28125 C 9.050781 -9.070312 9.316406 -8.8125 9.484375 -8.5 C 9.648438 -8.1875 9.734375 -7.867188 9.734375 -7.546875 C 9.734375 -7.285156 9.65625 -7.070312 9.5 -6.90625 C 9.34375 -6.75 9.128906 -6.671875 8.859375 -6.671875 C 8.597656 -6.671875 8.382812 -6.75 8.21875 -6.90625 C 8.0625 -7.070312 7.984375 -7.285156 7.984375 -7.546875 C 7.984375 -7.804688 8.0625 -8.015625 8.21875 -8.171875 C 8.382812 -8.335938 8.597656 -8.421875 8.859375 -8.421875 C 8.992188 -8.421875 9.109375 -8.394531 9.203125 -8.34375 C 9.304688 -8.300781 9.390625 -8.242188 9.453125 -8.171875 C 9.328125 -8.515625 9.09375 -8.816406 8.75 -9.078125 C 8.40625 -9.335938 7.90625 -9.46875 7.25 -9.46875 C 6.625 -9.46875 6.15625 -9.296875 5.84375 -8.953125 C 5.539062 -8.609375 5.390625 -8.160156 5.390625 -7.609375 C 5.390625 -7.234375 5.523438 -6.800781 5.796875 -6.3125 C 6.066406 -5.820312 6.46875 -5.3125 7 -4.78125 L 9.984375 -1.796875 C 10.328125 -2.171875 10.582031 -2.597656 10.75 -3.078125 C 10.925781 -3.566406 11.015625 -4.070312 11.015625 -4.59375 C 11.015625 -4.832031 10.929688 -5.003906 10.765625 -5.109375 C 10.597656 -5.210938 10.226562 -5.265625 9.65625 -5.265625 L 9.65625 -5.40625 L 12.484375 -5.40625 L 12.484375 -5.265625 C 11.921875 -5.265625 11.554688 -5.210938 11.390625 -5.109375 C 11.222656 -5.003906 11.140625 -4.832031 11.140625 -4.59375 C 11.140625 -4.0625 11.054688 -3.539062 10.890625 -3.03125 C 10.734375 -2.53125 10.484375 -2.070312 10.140625 -1.65625 L 10.546875 -1.25 C 10.785156 -1 11.035156 -0.757812 11.296875 -0.53125 C 11.566406 -0.3125 11.835938 -0.203125 12.109375 -0.203125 C 12.378906 -0.203125 12.582031 -0.234375 12.71875 -0.296875 C 12.851562 -0.359375 13.003906 -0.472656 13.171875 -0.640625 L 13.265625 -0.53125 C 13.015625 -0.28125 12.738281 -0.101562 12.4375 0 C 12.132812 0.09375 11.71875 0.140625 11.1875 0.140625 C 10.863281 0.140625 10.519531 0.0625 10.15625 -0.09375 C 9.789062 -0.25 9.429688 -0.46875 9.078125 -0.75 C 8.640625 -0.46875 8.125 -0.25 7.53125 -0.09375 C 6.945312 0.0625 6.285156 0.140625 5.546875 0.140625 C 4.003906 0.140625 2.835938 -0.125 2.046875 -0.65625 C 1.253906 -1.1875 0.859375 -1.925781 0.859375 -2.875 C 0.859375 -3.53125 1.078125 -4.070312 1.515625 -4.5 C 1.953125 -4.925781 2.566406 -5.140625 3.359375 -5.140625 C 4.023438 -5.140625 4.601562 -5 5.09375 -4.71875 C 4.601562 -5.269531 4.273438 -5.75 4.109375 -6.15625 C 3.941406 -6.570312 3.859375 -6.972656 3.859375 -7.359375 C 3.859375 -7.710938 3.9375 -8.046875 4.09375 -8.359375 C 4.257812 -8.679688 4.535156 -8.9375 4.921875 -9.125 C 5.210938 -9.289062 5.539062 -9.410156 5.90625 -9.484375 C 6.28125 -9.554688 6.726562 -9.59375 7.25 -9.59375 Z M 8.875 -0.921875 C 8.832031 -0.960938 8.789062 -1.003906 8.75 -1.046875 C 8.707031 -1.085938 8.664062 -1.125 8.625 -1.15625 L 5.859375 -3.921875 C 5.617188 -4.148438 5.328125 -4.316406 4.984375 -4.421875 C 4.640625 -4.523438 4.320312 -4.578125 4.03125 -4.578125 C 3.476562 -4.578125 3.066406 -4.429688 2.796875 -4.140625 C 2.523438 -3.859375 2.390625 -3.492188 2.390625 -3.046875 C 2.390625 -2.203125 2.703125 -1.523438 3.328125 -1.015625 C 3.960938 -0.503906 4.894531 -0.25 6.125 -0.25 C 6.664062 -0.25 7.164062 -0.304688 7.625 -0.421875 C 8.09375 -0.546875 8.507812 -0.710938 8.875 -0.921875 Z M 8.875 -0.921875 "/></g></g></g><g fill="#ffffff" fill-opacity="1"><g transform="translate(168.663065, 242.47699)"><g><path d="M -0.34375 5.96875 C -0.34375 6.226562 -0.296875 6.394531 -0.203125 6.46875 C -0.109375 6.539062 0.0390625 6.578125 0.25 6.578125 C 0.632812 6.472656 0.988281 6.171875 1.3125 5.671875 C 1.632812 5.179688 1.910156 4.644531 2.140625 4.0625 C 2.378906 3.476562 2.539062 3.007812 2.625 2.65625 C 2.726562 2.269531 2.789062 1.898438 2.8125 1.546875 C 2.832031 1.191406 2.84375 0.789062 2.84375 0.34375 C 2.78125 0.382812 2.675781 0.484375 2.53125 0.640625 C 2.382812 0.804688 2.234375 0.972656 2.078125 1.140625 C 1.929688 1.304688 1.828125 1.429688 1.765625 1.515625 C 1.472656 1.867188 1.160156 2.300781 0.828125 2.8125 C 0.503906 3.320312 0.226562 3.847656 0 4.390625 C -0.226562 4.941406 -0.34375 5.46875 -0.34375 5.96875 Z M -0.34375 -5.375 C -0.34375 -5.726562 -0.210938 -6.097656 0.046875 -6.484375 C 0.304688 -6.878906 0.601562 -7.21875 0.9375 -7.5 C 1.28125 -7.789062 1.578125 -7.9375 1.828125 -7.9375 C 2.085938 -7.9375 2.25 -7.859375 2.3125 -7.703125 C 2.375 -7.554688 2.378906 -7.398438 2.328125 -7.234375 C 2.273438 -7.066406 2.179688 -6.984375 2.046875 -6.984375 C 1.835938 -6.984375 1.769531 -7.0625 1.84375 -7.21875 C 1.914062 -7.375 1.960938 -7.472656 1.984375 -7.515625 C 1.734375 -7.492188 1.507812 -7.398438 1.3125 -7.234375 C 1.113281 -7.066406 0.960938 -6.910156 0.859375 -6.765625 C 0.492188 -6.273438 0.296875 -5.875 0.265625 -5.5625 C 0.234375 -5.25 0.316406 -4.972656 0.515625 -4.734375 C 0.722656 -4.503906 1 -4.253906 1.34375 -3.984375 C 1.6875 -3.710938 2.03125 -3.363281 2.375 -2.9375 C 2.539062 -2.75 2.742188 -2.476562 2.984375 -2.125 C 3.222656 -1.78125 3.351562 -1.460938 3.375 -1.171875 C 3.4375 -1.191406 3.59375 -1.300781 3.84375 -1.5 C 4.101562 -1.695312 4.382812 -1.921875 4.6875 -2.171875 C 5 -2.429688 5.285156 -2.664062 5.546875 -2.875 C 5.804688 -3.082031 5.976562 -3.21875 6.0625 -3.28125 C 6.144531 -3.34375 6.304688 -3.46875 6.546875 -3.65625 C 6.796875 -3.851562 7.078125 -4.070312 7.390625 -4.3125 C 7.710938 -4.550781 8.019531 -4.75 8.3125 -4.90625 C 8.601562 -5.070312 8.832031 -5.15625 9 -5.15625 C 9.132812 -5.15625 9.203125 -5.078125 9.203125 -4.921875 C 9.203125 -4.816406 9.09375 -4.691406 8.875 -4.546875 C 8.664062 -4.398438 8.507812 -4.296875 8.40625 -4.234375 C 8.257812 -4.148438 8.128906 -4.0625 8.015625 -3.96875 C 7.898438 -3.875 7.765625 -3.773438 7.609375 -3.671875 C 7.460938 -3.566406 7.320312 -3.457031 7.1875 -3.34375 C 7.050781 -3.238281 6.910156 -3.132812 6.765625 -3.03125 C 6.617188 -2.945312 6.484375 -2.851562 6.359375 -2.75 C 6.242188 -2.644531 6.113281 -2.539062 5.96875 -2.4375 L 4.421875 -1.140625 C 4.128906 -0.847656 3.921875 -0.664062 3.796875 -0.59375 C 3.671875 -0.53125 3.601562 -0.46875 3.59375 -0.40625 C 3.582031 -0.34375 3.597656 -0.175781 3.640625 0.09375 C 3.742188 0.707031 3.726562 1.359375 3.59375 2.046875 C 3.46875 2.742188 3.28125 3.40625 3.03125 4.03125 C 2.78125 4.65625 2.507812 5.207031 2.21875 5.6875 C 1.875 6.257812 1.515625 6.671875 1.140625 6.921875 C 0.773438 7.171875 0.4375 7.296875 0.125 7.296875 C -0.207031 7.296875 -0.476562 7.175781 -0.6875 6.9375 C -0.90625 6.695312 -1.015625 6.394531 -1.015625 6.03125 C -1.015625 5.40625 -0.878906 4.78125 -0.609375 4.15625 C -0.347656 3.53125 -0.0234375 2.925781 0.359375 2.34375 C 0.753906 1.769531 1.128906 1.273438 1.484375 0.859375 C 1.566406 0.773438 1.691406 0.632812 1.859375 0.4375 C 2.023438 0.25 2.1875 0.0664062 2.34375 -0.109375 C 2.507812 -0.285156 2.625 -0.382812 2.6875 -0.40625 C 2.6875 -0.625 2.625 -0.894531 2.5 -1.21875 C 2.375 -1.539062 2.257812 -1.773438 2.15625 -1.921875 C 1.851562 -2.390625 1.503906 -2.796875 1.109375 -3.140625 C 0.722656 -3.492188 0.382812 -3.847656 0.09375 -4.203125 C -0.195312 -4.554688 -0.34375 -4.945312 -0.34375 -5.375 Z M -0.34375 -5.375 "/></g></g></g><g fill="#ffffff" fill-opacity="1"><g transform="translate(176.635165, 242.47699)"><g><path d="M -0.03125 -1.234375 C -0.28125 -1.335938 -0.414062 -1.546875 -0.4375 -1.859375 C -0.476562 -2.078125 -0.457031 -2.300781 -0.375 -2.53125 C -0.226562 -2.90625 -0.0078125 -3.320312 0.28125 -3.78125 C 0.582031 -4.25 0.9375 -4.660156 1.34375 -5.015625 C 1.75 -5.378906 2.132812 -5.59375 2.5 -5.65625 C 2.539062 -5.65625 2.570312 -5.660156 2.59375 -5.671875 C 2.613281 -5.679688 2.632812 -5.6875 2.65625 -5.6875 C 2.90625 -5.6875 3.070312 -5.59375 3.15625 -5.40625 C 3.21875 -5.28125 3.238281 -5.117188 3.21875 -4.921875 C 3.175781 -4.648438 3.101562 -4.515625 3 -4.515625 C 2.957031 -4.515625 2.925781 -4.523438 2.90625 -4.546875 C 2.882812 -4.566406 2.875 -4.648438 2.875 -4.796875 C 2.851562 -4.835938 2.84375 -4.878906 2.84375 -4.921875 C 2.84375 -4.972656 2.84375 -5 2.84375 -5 C 2.84375 -5.019531 2.820312 -5.03125 2.78125 -5.03125 C 2.675781 -5.03125 2.492188 -4.894531 2.234375 -4.625 C 1.984375 -4.363281 1.722656 -4.046875 1.453125 -3.671875 C 1.285156 -3.453125 1.09375 -3.160156 0.875 -2.796875 C 0.664062 -2.429688 0.570312 -2.25 0.59375 -2.25 C 0.632812 -2.226562 0.789062 -2.351562 1.0625 -2.625 C 1.34375 -2.894531 1.617188 -3.191406 1.890625 -3.515625 C 2.128906 -3.804688 2.300781 -4.007812 2.40625 -4.125 C 2.507812 -4.238281 2.59375 -4.316406 2.65625 -4.359375 C 2.757812 -4.421875 2.84375 -4.453125 2.90625 -4.453125 C 3.007812 -4.453125 3.09375 -4.390625 3.15625 -4.265625 C 3.195312 -4.222656 3.21875 -4.175781 3.21875 -4.125 C 3.21875 -4.070312 3.207031 -3.929688 3.1875 -3.703125 C 3.164062 -3.003906 3.226562 -2.5625 3.375 -2.375 C 3.4375 -2.3125 3.484375 -2.28125 3.515625 -2.28125 C 3.679688 -2.28125 3.925781 -2.382812 4.25 -2.59375 C 4.570312 -2.800781 4.878906 -3.023438 5.171875 -3.265625 C 5.472656 -3.515625 5.675781 -3.691406 5.78125 -3.796875 C 5.945312 -3.960938 6.039062 -4.046875 6.0625 -4.046875 C 6.082031 -4.046875 6.097656 -4.046875 6.109375 -4.046875 C 6.117188 -4.046875 6.132812 -4.046875 6.15625 -4.046875 C 6.269531 -4.046875 6.328125 -4.035156 6.328125 -4.015625 C 6.328125 -4.015625 6.328125 -4.007812 6.328125 -4 C 6.328125 -3.988281 6.335938 -3.972656 6.359375 -3.953125 C 6.421875 -3.890625 6.410156 -3.796875 6.328125 -3.671875 C 6.210938 -3.472656 5.972656 -3.210938 5.609375 -2.890625 C 5.242188 -2.566406 4.863281 -2.28125 4.46875 -2.03125 C 4.082031 -1.789062 3.757812 -1.671875 3.5 -1.671875 C 3.207031 -1.671875 2.992188 -1.769531 2.859375 -1.96875 C 2.722656 -2.175781 2.644531 -2.421875 2.625 -2.703125 C 2.601562 -2.984375 2.59375 -3.226562 2.59375 -3.4375 C 2.570312 -3.4375 2.535156 -3.394531 2.484375 -3.3125 C 2.429688 -3.226562 2.351562 -3.132812 2.25 -3.03125 C 1.988281 -2.675781 1.660156 -2.285156 1.265625 -1.859375 C 0.878906 -1.441406 0.445312 -1.234375 -0.03125 -1.234375 Z M -0.03125 -1.234375 "/></g></g></g><g fill="#ffffff" fill-opacity="1"><g transform="translate(182.042597, 242.47699)"><g><path d="M 2.078125 1.890625 C 1.742188 1.890625 1.476562 1.691406 1.28125 1.296875 C 1.082031 0.898438 0.929688 0.4375 0.828125 -0.09375 C 0.734375 -0.625 0.664062 -1.132812 0.625 -1.625 C 0.582031 -2.125 0.539062 -2.476562 0.5 -2.6875 C 0.457031 -3.039062 0.441406 -3.472656 0.453125 -3.984375 C 0.460938 -4.503906 0.472656 -5.046875 0.484375 -5.609375 C 0.492188 -6.171875 0.46875 -6.703125 0.40625 -7.203125 C 0.363281 -7.566406 0.316406 -7.785156 0.265625 -7.859375 C 0.210938 -7.929688 0.171875 -7.976562 0.140625 -8 C 0.109375 -8.019531 0.113281 -8.125 0.15625 -8.3125 L 0.53125 -8.3125 C 0.6875 -8.0625 0.796875 -7.710938 0.859375 -7.265625 C 0.960938 -6.679688 1.019531 -6.039062 1.03125 -5.34375 C 1.039062 -4.644531 1.066406 -4 1.109375 -3.40625 C 1.148438 -3.03125 1.195312 -2.585938 1.25 -2.078125 C 1.300781 -1.578125 1.378906 -1.070312 1.484375 -0.5625 C 1.585938 -0.0625 1.710938 0.359375 1.859375 0.703125 C 1.898438 0.785156 1.9375 0.859375 1.96875 0.921875 C 2 0.984375 2.035156 1.054688 2.078125 1.140625 C 2.296875 0.992188 2.523438 0.664062 2.765625 0.15625 C 3.003906 -0.34375 3.222656 -0.878906 3.421875 -1.453125 C 3.628906 -2.023438 3.773438 -2.476562 3.859375 -2.8125 C 4.003906 -3.300781 4.109375 -3.722656 4.171875 -4.078125 C 4.234375 -4.429688 4.296875 -4.773438 4.359375 -5.109375 C 4.421875 -5.453125 4.503906 -5.851562 4.609375 -6.3125 C 4.671875 -6.53125 4.722656 -6.707031 4.765625 -6.84375 C 4.804688 -6.976562 4.9375 -7.078125 5.15625 -7.140625 C 5.382812 -6.953125 5.476562 -6.789062 5.4375 -6.65625 C 5.394531 -6.519531 5.351562 -6.289062 5.3125 -5.96875 C 5.269531 -5.757812 5.226562 -5.539062 5.1875 -5.3125 C 5.144531 -5.082031 5.101562 -4.859375 5.0625 -4.640625 C 5.019531 -4.429688 4.9375 -4.070312 4.8125 -3.5625 C 4.695312 -3.0625 4.546875 -2.5 4.359375 -1.875 C 4.171875 -1.257812 3.957031 -0.664062 3.71875 -0.09375 C 3.488281 0.476562 3.234375 0.953125 2.953125 1.328125 C 2.671875 1.703125 2.378906 1.890625 2.078125 1.890625 Z M 2.078125 1.890625 "/></g></g></g><g fill="#ffffff" fill-opacity="1"><g transform="translate(187.666318, 242.47699)"><g><path d="M 2.015625 -0.65625 C 1.640625 -0.6875 1.304688 -0.796875 1.015625 -0.984375 C 0.710938 -1.296875 0.5 -1.554688 0.375 -1.765625 C 0.25 -1.972656 0.1875 -2.3125 0.1875 -2.78125 C 0.1875 -3.09375 0.195312 -3.320312 0.21875 -3.46875 C 0.300781 -3.832031 0.453125 -4.226562 0.671875 -4.65625 C 0.898438 -5.09375 1.191406 -5.460938 1.546875 -5.765625 C 1.898438 -6.066406 2.289062 -6.21875 2.71875 -6.21875 C 3.03125 -6.175781 3.25 -6.03125 3.375 -5.78125 C 3.46875 -5.59375 3.507812 -5.375 3.5 -5.125 C 3.5 -4.78125 3.363281 -4.421875 3.09375 -4.046875 C 2.820312 -3.679688 2.492188 -3.367188 2.109375 -3.109375 C 1.734375 -2.847656 1.390625 -2.675781 1.078125 -2.59375 C 1.035156 -2.59375 0.992188 -2.585938 0.953125 -2.578125 C 0.910156 -2.566406 0.878906 -2.5625 0.859375 -2.5625 C 0.835938 -2.539062 0.851562 -2.472656 0.90625 -2.359375 C 0.957031 -2.242188 0.992188 -2.148438 1.015625 -2.078125 C 1.117188 -1.847656 1.300781 -1.679688 1.5625 -1.578125 C 1.820312 -1.472656 2.070312 -1.421875 2.3125 -1.421875 C 3.0625 -1.421875 3.910156 -1.757812 4.859375 -2.4375 C 4.910156 -2.476562 5.023438 -2.566406 5.203125 -2.703125 C 5.378906 -2.835938 5.5625 -2.976562 5.75 -3.125 C 6.28125 -3.53125 6.640625 -3.804688 6.828125 -3.953125 C 7.015625 -4.097656 7.128906 -4.179688 7.171875 -4.203125 C 7.191406 -4.203125 7.207031 -4.207031 7.21875 -4.21875 C 7.226562 -4.226562 7.242188 -4.234375 7.265625 -4.234375 C 7.367188 -4.234375 7.4375 -4.191406 7.46875 -4.109375 C 7.5 -4.023438 7.492188 -3.941406 7.453125 -3.859375 C 7.429688 -3.816406 7.289062 -3.675781 7.03125 -3.4375 C 6.769531 -3.207031 6.476562 -2.957031 6.15625 -2.6875 C 5.84375 -2.414062 5.570312 -2.191406 5.34375 -2.015625 C 4.832031 -1.578125 4.300781 -1.234375 3.75 -0.984375 C 3.207031 -0.742188 2.71875 -0.625 2.28125 -0.625 C 2.238281 -0.625 2.191406 -0.628906 2.140625 -0.640625 C 2.097656 -0.648438 2.054688 -0.65625 2.015625 -0.65625 Z M 1.140625 -3.03125 C 1.492188 -3.132812 1.835938 -3.359375 2.171875 -3.703125 C 2.515625 -4.054688 2.757812 -4.398438 2.90625 -4.734375 C 3.007812 -4.972656 3.035156 -5.1875 2.984375 -5.375 C 2.929688 -5.5625 2.820312 -5.65625 2.65625 -5.65625 C 2.570312 -5.65625 2.429688 -5.597656 2.234375 -5.484375 C 2.046875 -5.367188 1.867188 -5.226562 1.703125 -5.0625 C 1.242188 -4.570312 0.960938 -3.945312 0.859375 -3.1875 C 0.835938 -3.144531 0.828125 -3.097656 0.828125 -3.046875 C 0.828125 -2.992188 0.828125 -2.96875 0.828125 -2.96875 C 0.847656 -2.945312 0.953125 -2.96875 1.140625 -3.03125 Z M 1.140625 -3.03125 "/></g></g></g><g fill="#ffffff" fill-opacity="1"><g transform="translate(194.093439, 242.47699)"><g/></g></g><g fill="#ffffff" fill-opacity="1"><g transform="translate(200.95314, 242.47699)"><g><path d="M -7.8125 -14.4375 C -7.8125 -14.5625 -7.625 -14.695312 -7.25 -14.84375 C -6.882812 -15 -6.445312 -15.160156 -5.9375 -15.328125 C -5.4375 -15.492188 -4.960938 -15.640625 -4.515625 -15.765625 C -4.078125 -15.890625 -3.785156 -15.960938 -3.640625 -15.984375 C -3.316406 -16.066406 -2.84375 -16.179688 -2.21875 -16.328125 C -1.601562 -16.484375 -0.984375 -16.628906 -0.359375 -16.765625 C 0.253906 -16.898438 0.703125 -16.976562 0.984375 -17 C 0.984375 -17.164062 1.035156 -17.457031 1.140625 -17.875 C 1.242188 -18.300781 1.382812 -18.75 1.5625 -19.21875 C 1.738281 -19.695312 1.929688 -20.101562 2.140625 -20.4375 C 2.359375 -20.78125 2.570312 -20.953125 2.78125 -20.953125 C 2.925781 -20.953125 3.039062 -20.867188 3.125 -20.703125 C 3.207031 -20.535156 3.25 -20.375 3.25 -20.21875 C 3.25 -19.65625 3.191406 -19.140625 3.078125 -18.671875 C 2.960938 -18.210938 2.851562 -17.75 2.75 -17.28125 C 3 -17.28125 3.378906 -17.316406 3.890625 -17.390625 C 4.410156 -17.460938 4.945312 -17.53125 5.5 -17.59375 C 6.050781 -17.664062 6.503906 -17.710938 6.859375 -17.734375 C 7.316406 -17.753906 7.894531 -17.796875 8.59375 -17.859375 C 9.289062 -17.921875 9.957031 -17.953125 10.59375 -17.953125 C 10.882812 -17.953125 11.148438 -17.941406 11.390625 -17.921875 C 11.628906 -17.898438 11.835938 -17.867188 12.015625 -17.828125 C 12.453125 -17.742188 12.640625 -17.570312 12.578125 -17.3125 C 12.515625 -17.0625 12.390625 -16.9375 12.203125 -16.9375 C 12.097656 -16.9375 12.03125 -16.960938 12 -17.015625 C 11.96875 -17.066406 11.9375 -17.132812 11.90625 -17.21875 C 11.675781 -17.21875 11.476562 -17.234375 11.3125 -17.265625 C 11.144531 -17.296875 10.925781 -17.3125 10.65625 -17.3125 C 10.457031 -17.289062 10.28125 -17.269531 10.125 -17.25 C 9.96875 -17.226562 9.753906 -17.21875 9.484375 -17.21875 L 2.53125 -16.5625 L 1.703125 -14.09375 C 1.597656 -13.800781 1.535156 -13.628906 1.515625 -13.578125 C 1.492188 -13.523438 1.5 -13.5 1.53125 -13.5 C 1.5625 -13.5 1.578125 -13.421875 1.578125 -13.265625 C 1.578125 -13.179688 1.535156 -13.109375 1.453125 -13.046875 C 1.367188 -12.984375 1.304688 -12.859375 1.265625 -12.671875 L 1.140625 -8.625 C 1.140625 -8.375 1.140625 -7.925781 1.140625 -7.28125 C 1.140625 -6.632812 1.140625 -5.894531 1.140625 -5.0625 C 1.140625 -4.238281 1.140625 -3.421875 1.140625 -2.609375 C 1.140625 -1.796875 1.148438 -1.09375 1.171875 -0.5 C 1.191406 0.0820312 1.210938 0.445312 1.234375 0.59375 L 1.734375 7.203125 C 1.796875 7.671875 1.863281 8.035156 1.9375 8.296875 C 2.007812 8.554688 1.960938 8.8125 1.796875 9.0625 C 1.566406 9.039062 1.394531 8.898438 1.28125 8.640625 C 1.164062 8.378906 1.085938 8.09375 1.046875 7.78125 C 1.003906 7.476562 0.972656 7.242188 0.953125 7.078125 C 0.910156 6.703125 0.863281 6.296875 0.8125 5.859375 C 0.757812 5.429688 0.71875 5.003906 0.6875 4.578125 L 0.34375 -11.5625 C 0.0703125 -11.601562 -0.0351562 -11.679688 0.015625 -11.796875 C 0.0664062 -11.921875 0.144531 -12.066406 0.25 -12.234375 C 0.351562 -12.378906 0.421875 -12.628906 0.453125 -12.984375 C 0.484375 -13.347656 0.515625 -13.742188 0.546875 -14.171875 C 0.578125 -14.609375 0.609375 -15.019531 0.640625 -15.40625 C 0.679688 -15.789062 0.742188 -16.070312 0.828125 -16.25 C 0.566406 -16.1875 0.296875 -16.128906 0.015625 -16.078125 C -0.265625 -16.035156 -0.546875 -15.992188 -0.828125 -15.953125 C -1.117188 -15.890625 -1.394531 -15.828125 -1.65625 -15.765625 C -1.914062 -15.703125 -2.1875 -15.648438 -2.46875 -15.609375 C -2.65625 -15.566406 -2.976562 -15.484375 -3.4375 -15.359375 C -3.90625 -15.234375 -4.351562 -15.117188 -4.78125 -15.015625 C -5.21875 -14.910156 -5.5 -14.859375 -5.625 -14.859375 L -5.5 -14.828125 C -5.394531 -14.773438 -5.328125 -14.75 -5.296875 -14.75 C -5.265625 -14.75 -5.25 -14.695312 -5.25 -14.59375 C -5.25 -14.425781 -5.414062 -14.328125 -5.75 -14.296875 C -6.082031 -14.265625 -6.359375 -14.238281 -6.578125 -14.21875 C -6.679688 -14.21875 -6.800781 -14.207031 -6.9375 -14.1875 C -7.070312 -14.164062 -7.203125 -14.15625 -7.328125 -14.15625 C -7.648438 -14.15625 -7.8125 -14.25 -7.8125 -14.4375 Z M 2.015625 -17.15625 L 2.015625 -17.4375 C 2.035156 -17.476562 2.054688 -17.523438 2.078125 -17.578125 L 2.078125 -17.734375 C 2.109375 -17.773438 2.125 -17.789062 2.125 -17.78125 C 2.125 -17.769531 2.132812 -17.804688 2.15625 -17.890625 L 2.15625 -18.015625 C 2.195312 -18.054688 2.210938 -18.070312 2.203125 -18.0625 C 2.191406 -18.050781 2.195312 -18.085938 2.21875 -18.171875 C 2.21875 -18.296875 2.222656 -18.347656 2.234375 -18.328125 C 2.242188 -18.304688 2.226562 -18.296875 2.1875 -18.296875 L 2.15625 -18.328125 L 2.15625 -18.015625 C 2.132812 -17.992188 2.117188 -17.941406 2.109375 -17.859375 C 2.085938 -17.859375 2.078125 -17.816406 2.078125 -17.734375 C 2.054688 -17.691406 2.046875 -17.671875 2.046875 -17.671875 C 2.046875 -17.671875 2.035156 -17.640625 2.015625 -17.578125 L 2.015625 -17.4375 C 1.992188 -17.414062 1.976562 -17.40625 1.96875 -17.40625 C 1.957031 -17.40625 1.953125 -17.363281 1.953125 -17.28125 C 1.953125 -17.257812 1.953125 -17.238281 1.953125 -17.21875 C 1.953125 -17.195312 1.953125 -17.175781 1.953125 -17.15625 C 1.953125 -17.238281 1.972656 -17.238281 2.015625 -17.15625 Z M 2.25 -18.546875 C 2.25 -18.546875 2.242188 -18.539062 2.234375 -18.53125 C 2.222656 -18.519531 2.21875 -18.492188 2.21875 -18.453125 C 2.21875 -18.390625 2.226562 -18.359375 2.25 -18.359375 L 2.28125 -18.453125 C 2.300781 -18.472656 2.304688 -18.492188 2.296875 -18.515625 C 2.285156 -18.535156 2.269531 -18.546875 2.25 -18.546875 Z M 1.734375 -16.40625 C 1.710938 -16.40625 1.707031 -16.398438 1.71875 -16.390625 C 1.726562 -16.378906 1.734375 -16.375 1.734375 -16.375 Z M 1.734375 -16.40625 "/></g></g></g><g fill="#ffffff" fill-opacity="1"><g transform="translate(204.104902, 242.47699)"><g><path d="M 0.40625 -1.921875 C 0.40625 -3.816406 0.53125 -5.648438 0.78125 -7.421875 C 1.039062 -9.191406 1.367188 -10.828125 1.765625 -12.328125 C 1.828125 -12.578125 1.9375 -12.96875 2.09375 -13.5 C 2.257812 -14.039062 2.460938 -14.625 2.703125 -15.25 C 2.941406 -15.875 3.210938 -16.472656 3.515625 -17.046875 C 3.828125 -17.628906 4.164062 -18.109375 4.53125 -18.484375 C 4.90625 -18.867188 5.289062 -19.0625 5.6875 -19.0625 C 6.039062 -19.0625 6.316406 -18.945312 6.515625 -18.71875 C 6.722656 -18.5 6.867188 -18.242188 6.953125 -17.953125 C 7.160156 -17.441406 7.242188 -16.816406 7.203125 -16.078125 C 7.160156 -15.347656 7.078125 -14.707031 6.953125 -14.15625 C 6.660156 -12.65625 6.191406 -11.226562 5.546875 -9.875 C 4.898438 -8.519531 4.164062 -7.238281 3.34375 -6.03125 C 2.882812 -5.320312 2.515625 -4.820312 2.234375 -4.53125 C 1.960938 -4.25 1.734375 -3.992188 1.546875 -3.765625 C 1.441406 -3.640625 1.375 -3.335938 1.34375 -2.859375 C 1.3125 -2.390625 1.300781 -1.863281 1.3125 -1.28125 C 1.320312 -0.695312 1.34375 -0.148438 1.375 0.359375 C 1.40625 0.878906 1.429688 1.253906 1.453125 1.484375 C 1.453125 1.671875 1.445312 1.851562 1.4375 2.03125 C 1.425781 2.21875 1.429688 2.40625 1.453125 2.59375 C 1.453125 2.78125 1.460938 2.929688 1.484375 3.046875 C 1.503906 3.160156 1.515625 3.328125 1.515625 3.546875 C 1.515625 3.523438 1.519531 3.507812 1.53125 3.5 C 1.539062 3.5 1.546875 3.5 1.546875 3.5 L 1.578125 3.40625 C 1.617188 3.363281 1.640625 3.289062 1.640625 3.1875 C 1.910156 2.257812 2.148438 1.4375 2.359375 0.71875 C 2.578125 0.0078125 2.832031 -0.691406 3.125 -1.390625 C 3.425781 -2.085938 3.804688 -2.878906 4.265625 -3.765625 C 4.453125 -4.160156 4.675781 -4.554688 4.9375 -4.953125 C 5.207031 -5.359375 5.550781 -5.5625 5.96875 -5.5625 C 6.195312 -5.5625 6.363281 -5.390625 6.46875 -5.046875 C 6.582031 -4.710938 6.6875 -4.289062 6.78125 -3.78125 C 6.875 -3.28125 6.972656 -2.769531 7.078125 -2.25 C 7.179688 -1.738281 7.316406 -1.3125 7.484375 -0.96875 C 7.660156 -0.632812 7.90625 -0.46875 8.21875 -0.46875 C 8.300781 -0.46875 8.375 -0.484375 8.4375 -0.515625 C 8.5 -0.546875 8.570312 -0.570312 8.65625 -0.59375 C 9.101562 -0.789062 9.5625 -1.140625 10.03125 -1.640625 C 10.507812 -2.148438 10.914062 -2.601562 11.25 -3 L 12.234375 -4.078125 C 12.273438 -4.097656 12.335938 -4.109375 12.421875 -4.109375 C 12.503906 -4.109375 12.582031 -4.085938 12.65625 -4.046875 C 12.726562 -4.003906 12.765625 -3.921875 12.765625 -3.796875 C 12.765625 -3.628906 12.71875 -3.5 12.625 -3.40625 C 12.53125 -3.320312 12.441406 -3.226562 12.359375 -3.125 L 11.34375 -1.921875 C 11.257812 -1.816406 11.179688 -1.726562 11.109375 -1.65625 C 11.035156 -1.582031 10.945312 -1.492188 10.84375 -1.390625 C 10.5 -1.035156 10.09375 -0.65625 9.625 -0.25 C 9.164062 0.144531 8.695312 0.34375 8.21875 0.34375 C 7.789062 0.34375 7.398438 0.125 7.046875 -0.3125 C 6.648438 -0.90625 6.351562 -1.625 6.15625 -2.46875 C 5.96875 -3.3125 5.84375 -4.085938 5.78125 -4.796875 C 5.507812 -4.609375 5.207031 -4.210938 4.875 -3.609375 C 4.550781 -3.015625 4.234375 -2.304688 3.921875 -1.484375 C 3.617188 -0.660156 3.328125 0.1875 3.046875 1.0625 C 2.765625 1.9375 2.523438 2.753906 2.328125 3.515625 C 2.140625 4.285156 2.003906 4.90625 1.921875 5.375 C 1.898438 5.601562 1.863281 5.894531 1.8125 6.25 C 1.757812 6.613281 1.609375 6.796875 1.359375 6.796875 C 1.046875 6.796875 0.882812 6.59375 0.875 6.1875 C 0.863281 5.789062 0.828125 5.394531 0.765625 5 L 0.5 0.765625 C 0.5 0.546875 0.484375 0.378906 0.453125 0.265625 C 0.421875 0.148438 0.40625 -0.0195312 0.40625 -0.25 Z M 1.515625 -4.546875 C 1.679688 -4.671875 1.894531 -4.921875 2.15625 -5.296875 C 2.425781 -5.679688 2.691406 -6.078125 2.953125 -6.484375 C 3.210938 -6.898438 3.394531 -7.203125 3.5 -7.390625 C 4.09375 -8.378906 4.628906 -9.488281 5.109375 -10.71875 C 5.597656 -11.957031 5.945312 -13.144531 6.15625 -14.28125 C 6.289062 -14.957031 6.359375 -15.597656 6.359375 -16.203125 C 6.359375 -16.816406 6.300781 -17.3125 6.1875 -17.6875 C 6.082031 -18.070312 5.90625 -18.265625 5.65625 -18.265625 C 5.46875 -18.265625 5.238281 -18.097656 4.96875 -17.765625 C 4.4375 -17.066406 3.953125 -16.144531 3.515625 -15 C 3.085938 -13.863281 2.722656 -12.644531 2.421875 -11.34375 C 2.128906 -10.039062 1.90625 -8.789062 1.75 -7.59375 C 1.59375 -6.40625 1.515625 -5.390625 1.515625 -4.546875 Z M 1.515625 -4.546875 "/></g></g></g><g fill="#ffffff" fill-opacity="1"><g transform="translate(215.692247, 242.47699)"><g><path d="M 2.015625 -0.65625 C 1.640625 -0.6875 1.304688 -0.796875 1.015625 -0.984375 C 0.710938 -1.296875 0.5 -1.554688 0.375 -1.765625 C 0.25 -1.972656 0.1875 -2.3125 0.1875 -2.78125 C 0.1875 -3.09375 0.195312 -3.320312 0.21875 -3.46875 C 0.300781 -3.832031 0.453125 -4.226562 0.671875 -4.65625 C 0.898438 -5.09375 1.191406 -5.460938 1.546875 -5.765625 C 1.898438 -6.066406 2.289062 -6.21875 2.71875 -6.21875 C 3.03125 -6.175781 3.25 -6.03125 3.375 -5.78125 C 3.46875 -5.59375 3.507812 -5.375 3.5 -5.125 C 3.5 -4.78125 3.363281 -4.421875 3.09375 -4.046875 C 2.820312 -3.679688 2.492188 -3.367188 2.109375 -3.109375 C 1.734375 -2.847656 1.390625 -2.675781 1.078125 -2.59375 C 1.035156 -2.59375 0.992188 -2.585938 0.953125 -2.578125 C 0.910156 -2.566406 0.878906 -2.5625 0.859375 -2.5625 C 0.835938 -2.539062 0.851562 -2.472656 0.90625 -2.359375 C 0.957031 -2.242188 0.992188 -2.148438 1.015625 -2.078125 C 1.117188 -1.847656 1.300781 -1.679688 1.5625 -1.578125 C 1.820312 -1.472656 2.070312 -1.421875 2.3125 -1.421875 C 3.0625 -1.421875 3.910156 -1.757812 4.859375 -2.4375 C 4.910156 -2.476562 5.023438 -2.566406 5.203125 -2.703125 C 5.378906 -2.835938 5.5625 -2.976562 5.75 -3.125 C 6.28125 -3.53125 6.640625 -3.804688 6.828125 -3.953125 C 7.015625 -4.097656 7.128906 -4.179688 7.171875 -4.203125 C 7.191406 -4.203125 7.207031 -4.207031 7.21875 -4.21875 C 7.226562 -4.226562 7.242188 -4.234375 7.265625 -4.234375 C 7.367188 -4.234375 7.4375 -4.191406 7.46875 -4.109375 C 7.5 -4.023438 7.492188 -3.941406 7.453125 -3.859375 C 7.429688 -3.816406 7.289062 -3.675781 7.03125 -3.4375 C 6.769531 -3.207031 6.476562 -2.957031 6.15625 -2.6875 C 5.84375 -2.414062 5.570312 -2.191406 5.34375 -2.015625 C 4.832031 -1.578125 4.300781 -1.234375 3.75 -0.984375 C 3.207031 -0.742188 2.71875 -0.625 2.28125 -0.625 C 2.238281 -0.625 2.191406 -0.628906 2.140625 -0.640625 C 2.097656 -0.648438 2.054688 -0.65625 2.015625 -0.65625 Z M 1.140625 -3.03125 C 1.492188 -3.132812 1.835938 -3.359375 2.171875 -3.703125 C 2.515625 -4.054688 2.757812 -4.398438 2.90625 -4.734375 C 3.007812 -4.972656 3.035156 -5.1875 2.984375 -5.375 C 2.929688 -5.5625 2.820312 -5.65625 2.65625 -5.65625 C 2.570312 -5.65625 2.429688 -5.597656 2.234375 -5.484375 C 2.046875 -5.367188 1.867188 -5.226562 1.703125 -5.0625 C 1.242188 -4.570312 0.960938 -3.945312 0.859375 -3.1875 C 0.835938 -3.144531 0.828125 -3.097656 0.828125 -3.046875 C 0.828125 -2.992188 0.828125 -2.96875 0.828125 -2.96875 C 0.847656 -2.945312 0.953125 -2.96875 1.140625 -3.03125 Z M 1.140625 -3.03125 "/></g></g></g><g fill="#ffffff" fill-opacity="1"><g transform="translate(222.119368, 242.47699)"><g/></g></g><g fill="#ffffff" fill-opacity="1"><g transform="translate(228.979069, 242.47699)"><g><path d="M 4.484375 6.953125 C 4.273438 6.804688 4.113281 6.15625 4 5 C 3.882812 3.851562 3.816406 2.25 3.796875 0.1875 C 3.796875 -0.820312 3.8125 -1.734375 3.84375 -2.546875 C 3.875 -3.359375 3.929688 -4.25 4.015625 -5.21875 C 4.035156 -5.425781 4.050781 -5.601562 4.0625 -5.75 C 4.070312 -5.894531 4.066406 -5.96875 4.046875 -5.96875 C 4.046875 -5.988281 3.90625 -5.710938 3.625 -5.140625 C 3.351562 -4.578125 3.019531 -3.90625 2.625 -3.125 C 2.175781 -2.195312 1.832031 -1.492188 1.59375 -1.015625 C 1.351562 -0.546875 1.175781 -0.21875 1.0625 -0.03125 C 0.945312 0.15625 0.847656 0.300781 0.765625 0.40625 C 0.609375 0.625 0.414062 0.734375 0.1875 0.734375 C 0.125 0.734375 0.0507812 0.71875 -0.03125 0.6875 C -0.320312 0.519531 -0.4375 0.113281 -0.375 -0.53125 C -0.332031 -0.9375 -0.257812 -1.382812 -0.15625 -1.875 C -0.0507812 -2.375 0.09375 -2.882812 0.28125 -3.40625 C 0.363281 -3.625 0.488281 -3.929688 0.65625 -4.328125 C 0.832031 -4.722656 1.039062 -5.117188 1.28125 -5.515625 C 1.519531 -5.921875 1.78125 -6.257812 2.0625 -6.53125 C 2.351562 -6.8125 2.644531 -6.953125 2.9375 -6.953125 C 3.164062 -6.953125 3.332031 -6.828125 3.4375 -6.578125 L 3.5 -6.421875 L 3.578125 -6.640625 C 3.617188 -6.703125 3.675781 -6.8125 3.75 -6.96875 C 3.820312 -7.125 3.898438 -7.273438 3.984375 -7.421875 L 4.265625 -7.96875 L 4.390625 -8.875 C 4.429688 -9.21875 4.507812 -9.765625 4.625 -10.515625 C 4.738281 -11.273438 4.882812 -12.125 5.0625 -13.0625 C 5.25 -14 5.46875 -14.914062 5.71875 -15.8125 C 5.96875 -16.707031 6.238281 -17.484375 6.53125 -18.140625 C 6.832031 -18.796875 7.171875 -19.207031 7.546875 -19.375 C 7.648438 -19.4375 7.75 -19.46875 7.84375 -19.46875 C 8.09375 -19.46875 8.289062 -19.328125 8.4375 -19.046875 C 8.582031 -18.773438 8.664062 -18.398438 8.6875 -17.921875 C 8.6875 -17.285156 8.554688 -16.523438 8.296875 -15.640625 C 8.035156 -14.753906 7.707031 -13.835938 7.3125 -12.890625 C 6.925781 -11.941406 6.519531 -11.03125 6.09375 -10.15625 C 5.675781 -9.28125 5.3125 -8.53125 5 -7.90625 C 4.925781 -7.769531 4.859375 -7.640625 4.796875 -7.515625 C 4.734375 -7.390625 4.703125 -7.316406 4.703125 -7.296875 C 4.703125 -7.253906 4.6875 -7.035156 4.65625 -6.640625 C 4.625 -6.253906 4.585938 -5.863281 4.546875 -5.46875 C 4.441406 -4.269531 4.375 -3.046875 4.34375 -1.796875 C 4.3125 -0.554688 4.304688 0.660156 4.328125 1.859375 C 4.347656 2.890625 4.378906 3.71875 4.421875 4.34375 C 4.460938 4.96875 4.515625 5.488281 4.578125 5.90625 C 4.640625 6.1875 4.703125 6.410156 4.765625 6.578125 C 4.847656 6.742188 4.847656 6.867188 4.765625 6.953125 C 4.722656 6.992188 4.679688 7.015625 4.640625 7.015625 C 4.617188 7.015625 4.566406 6.992188 4.484375 6.953125 Z M 0.625 -0.765625 C 0.664062 -0.847656 0.738281 -1 0.84375 -1.21875 C 0.957031 -1.4375 1.066406 -1.660156 1.171875 -1.890625 C 1.210938 -1.953125 1.328125 -2.175781 1.515625 -2.5625 C 1.703125 -2.957031 1.914062 -3.390625 2.15625 -3.859375 C 2.40625 -4.335938 2.617188 -4.75 2.796875 -5.09375 C 2.972656 -5.445312 3.0625 -5.625 3.0625 -5.625 C 3.0625 -5.664062 3.066406 -5.71875 3.078125 -5.78125 C 3.085938 -5.84375 3.09375 -5.90625 3.09375 -5.96875 C 3.09375 -6.226562 3.0625 -6.390625 3 -6.453125 C 2.9375 -6.492188 2.789062 -6.40625 2.5625 -6.1875 C 2.175781 -5.851562 1.828125 -5.34375 1.515625 -4.65625 C 1.203125 -3.976562 0.953125 -3.273438 0.765625 -2.546875 C 0.585938 -1.816406 0.476562 -1.195312 0.4375 -0.6875 C 0.4375 -0.5625 0.4375 -0.5 0.4375 -0.5 C 0.4375 -0.5 0.5 -0.585938 0.625 -0.765625 Z M 5.15625 -9.703125 C 6.1875 -11.765625 6.925781 -13.410156 7.375 -14.640625 C 7.832031 -15.878906 8.09375 -16.910156 8.15625 -17.734375 C 8.21875 -18.460938 8.132812 -18.882812 7.90625 -19 C 7.84375 -19.019531 7.78125 -19.007812 7.71875 -18.96875 C 7.476562 -18.875 7.234375 -18.546875 6.984375 -17.984375 C 6.734375 -17.429688 6.5 -16.796875 6.28125 -16.078125 C 6.070312 -15.367188 5.894531 -14.707031 5.75 -14.09375 C 5.601562 -13.476562 5.507812 -13.046875 5.46875 -12.796875 C 5.40625 -12.398438 5.328125 -11.925781 5.234375 -11.375 C 5.140625 -10.832031 5.0625 -10.347656 5 -9.921875 C 4.945312 -9.503906 4.925781 -9.296875 4.9375 -9.296875 C 4.9375 -9.296875 4.957031 -9.335938 5 -9.421875 C 5.039062 -9.503906 5.09375 -9.597656 5.15625 -9.703125 Z M 5.15625 -9.703125 "/></g></g></g><g fill="#ffffff" fill-opacity="1"><g transform="translate(234.819096, 242.47699)"><g><path d="M -0.03125 -1.234375 C -0.28125 -1.335938 -0.414062 -1.546875 -0.4375 -1.859375 C -0.476562 -2.078125 -0.457031 -2.300781 -0.375 -2.53125 C -0.226562 -2.90625 -0.0078125 -3.320312 0.28125 -3.78125 C 0.582031 -4.25 0.9375 -4.660156 1.34375 -5.015625 C 1.75 -5.378906 2.132812 -5.59375 2.5 -5.65625 C 2.539062 -5.65625 2.570312 -5.660156 2.59375 -5.671875 C 2.613281 -5.679688 2.632812 -5.6875 2.65625 -5.6875 C 2.90625 -5.6875 3.070312 -5.59375 3.15625 -5.40625 C 3.21875 -5.28125 3.238281 -5.117188 3.21875 -4.921875 C 3.175781 -4.648438 3.101562 -4.515625 3 -4.515625 C 2.957031 -4.515625 2.925781 -4.523438 2.90625 -4.546875 C 2.882812 -4.566406 2.875 -4.648438 2.875 -4.796875 C 2.851562 -4.835938 2.84375 -4.878906 2.84375 -4.921875 C 2.84375 -4.972656 2.84375 -5 2.84375 -5 C 2.84375 -5.019531 2.820312 -5.03125 2.78125 -5.03125 C 2.675781 -5.03125 2.492188 -4.894531 2.234375 -4.625 C 1.984375 -4.363281 1.722656 -4.046875 1.453125 -3.671875 C 1.285156 -3.453125 1.09375 -3.160156 0.875 -2.796875 C 0.664062 -2.429688 0.570312 -2.25 0.59375 -2.25 C 0.632812 -2.226562 0.789062 -2.351562 1.0625 -2.625 C 1.34375 -2.894531 1.617188 -3.191406 1.890625 -3.515625 C 2.128906 -3.804688 2.300781 -4.007812 2.40625 -4.125 C 2.507812 -4.238281 2.59375 -4.316406 2.65625 -4.359375 C 2.757812 -4.421875 2.84375 -4.453125 2.90625 -4.453125 C 3.007812 -4.453125 3.09375 -4.390625 3.15625 -4.265625 C 3.195312 -4.222656 3.21875 -4.175781 3.21875 -4.125 C 3.21875 -4.070312 3.207031 -3.929688 3.1875 -3.703125 C 3.164062 -3.003906 3.226562 -2.5625 3.375 -2.375 C 3.4375 -2.3125 3.484375 -2.28125 3.515625 -2.28125 C 3.679688 -2.28125 3.925781 -2.382812 4.25 -2.59375 C 4.570312 -2.800781 4.878906 -3.023438 5.171875 -3.265625 C 5.472656 -3.515625 5.675781 -3.691406 5.78125 -3.796875 C 5.945312 -3.960938 6.039062 -4.046875 6.0625 -4.046875 C 6.082031 -4.046875 6.097656 -4.046875 6.109375 -4.046875 C 6.117188 -4.046875 6.132812 -4.046875 6.15625 -4.046875 C 6.269531 -4.046875 6.328125 -4.035156 6.328125 -4.015625 C 6.328125 -4.015625 6.328125 -4.007812 6.328125 -4 C 6.328125 -3.988281 6.335938 -3.972656 6.359375 -3.953125 C 6.421875 -3.890625 6.410156 -3.796875 6.328125 -3.671875 C 6.210938 -3.472656 5.972656 -3.210938 5.609375 -2.890625 C 5.242188 -2.566406 4.863281 -2.28125 4.46875 -2.03125 C 4.082031 -1.789062 3.757812 -1.671875 3.5 -1.671875 C 3.207031 -1.671875 2.992188 -1.769531 2.859375 -1.96875 C 2.722656 -2.175781 2.644531 -2.421875 2.625 -2.703125 C 2.601562 -2.984375 2.59375 -3.226562 2.59375 -3.4375 C 2.570312 -3.4375 2.535156 -3.394531 2.484375 -3.3125 C 2.429688 -3.226562 2.351562 -3.132812 2.25 -3.03125 C 1.988281 -2.675781 1.660156 -2.285156 1.265625 -1.859375 C 0.878906 -1.441406 0.445312 -1.234375 -0.03125 -1.234375 Z M -0.03125 -1.234375 "/></g></g></g><g fill="#ffffff" fill-opacity="1"><g transform="translate(240.226527, 242.47699)"><g><path d="M -7.8125 -14.4375 C -7.8125 -14.5625 -7.625 -14.695312 -7.25 -14.84375 C -6.882812 -15 -6.445312 -15.160156 -5.9375 -15.328125 C -5.4375 -15.492188 -4.960938 -15.640625 -4.515625 -15.765625 C -4.078125 -15.890625 -3.785156 -15.960938 -3.640625 -15.984375 C -3.316406 -16.066406 -2.84375 -16.179688 -2.21875 -16.328125 C -1.601562 -16.484375 -0.984375 -16.628906 -0.359375 -16.765625 C 0.253906 -16.898438 0.703125 -16.976562 0.984375 -17 C 0.984375 -17.164062 1.035156 -17.457031 1.140625 -17.875 C 1.242188 -18.300781 1.382812 -18.75 1.5625 -19.21875 C 1.738281 -19.695312 1.929688 -20.101562 2.140625 -20.4375 C 2.359375 -20.78125 2.570312 -20.953125 2.78125 -20.953125 C 2.925781 -20.953125 3.039062 -20.867188 3.125 -20.703125 C 3.207031 -20.535156 3.25 -20.375 3.25 -20.21875 C 3.25 -19.65625 3.191406 -19.140625 3.078125 -18.671875 C 2.960938 -18.210938 2.851562 -17.75 2.75 -17.28125 C 3 -17.28125 3.378906 -17.316406 3.890625 -17.390625 C 4.410156 -17.460938 4.945312 -17.53125 5.5 -17.59375 C 6.050781 -17.664062 6.503906 -17.710938 6.859375 -17.734375 C 7.316406 -17.753906 7.894531 -17.796875 8.59375 -17.859375 C 9.289062 -17.921875 9.957031 -17.953125 10.59375 -17.953125 C 10.882812 -17.953125 11.148438 -17.941406 11.390625 -17.921875 C 11.628906 -17.898438 11.835938 -17.867188 12.015625 -17.828125 C 12.453125 -17.742188 12.640625 -17.570312 12.578125 -17.3125 C 12.515625 -17.0625 12.390625 -16.9375 12.203125 -16.9375 C 12.097656 -16.9375 12.03125 -16.960938 12 -17.015625 C 11.96875 -17.066406 11.9375 -17.132812 11.90625 -17.21875 C 11.675781 -17.21875 11.476562 -17.234375 11.3125 -17.265625 C 11.144531 -17.296875 10.925781 -17.3125 10.65625 -17.3125 C 10.457031 -17.289062 10.28125 -17.269531 10.125 -17.25 C 9.96875 -17.226562 9.753906 -17.21875 9.484375 -17.21875 L 2.53125 -16.5625 L 1.703125 -14.09375 C 1.597656 -13.800781 1.535156 -13.628906 1.515625 -13.578125 C 1.492188 -13.523438 1.5 -13.5 1.53125 -13.5 C 1.5625 -13.5 1.578125 -13.421875 1.578125 -13.265625 C 1.578125 -13.179688 1.535156 -13.109375 1.453125 -13.046875 C 1.367188 -12.984375 1.304688 -12.859375 1.265625 -12.671875 L 1.140625 -8.625 C 1.140625 -8.375 1.140625 -7.925781 1.140625 -7.28125 C 1.140625 -6.632812 1.140625 -5.894531 1.140625 -5.0625 C 1.140625 -4.238281 1.140625 -3.421875 1.140625 -2.609375 C 1.140625 -1.796875 1.148438 -1.09375 1.171875 -0.5 C 1.191406 0.0820312 1.210938 0.445312 1.234375 0.59375 L 1.734375 7.203125 C 1.796875 7.671875 1.863281 8.035156 1.9375 8.296875 C 2.007812 8.554688 1.960938 8.8125 1.796875 9.0625 C 1.566406 9.039062 1.394531 8.898438 1.28125 8.640625 C 1.164062 8.378906 1.085938 8.09375 1.046875 7.78125 C 1.003906 7.476562 0.972656 7.242188 0.953125 7.078125 C 0.910156 6.703125 0.863281 6.296875 0.8125 5.859375 C 0.757812 5.429688 0.71875 5.003906 0.6875 4.578125 L 0.34375 -11.5625 C 0.0703125 -11.601562 -0.0351562 -11.679688 0.015625 -11.796875 C 0.0664062 -11.921875 0.144531 -12.066406 0.25 -12.234375 C 0.351562 -12.378906 0.421875 -12.628906 0.453125 -12.984375 C 0.484375 -13.347656 0.515625 -13.742188 0.546875 -14.171875 C 0.578125 -14.609375 0.609375 -15.019531 0.640625 -15.40625 C 0.679688 -15.789062 0.742188 -16.070312 0.828125 -16.25 C 0.566406 -16.1875 0.296875 -16.128906 0.015625 -16.078125 C -0.265625 -16.035156 -0.546875 -15.992188 -0.828125 -15.953125 C -1.117188 -15.890625 -1.394531 -15.828125 -1.65625 -15.765625 C -1.914062 -15.703125 -2.1875 -15.648438 -2.46875 -15.609375 C -2.65625 -15.566406 -2.976562 -15.484375 -3.4375 -15.359375 C -3.90625 -15.234375 -4.351562 -15.117188 -4.78125 -15.015625 C -5.21875 -14.910156 -5.5 -14.859375 -5.625 -14.859375 L -5.5 -14.828125 C -5.394531 -14.773438 -5.328125 -14.75 -5.296875 -14.75 C -5.265625 -14.75 -5.25 -14.695312 -5.25 -14.59375 C -5.25 -14.425781 -5.414062 -14.328125 -5.75 -14.296875 C -6.082031 -14.265625 -6.359375 -14.238281 -6.578125 -14.21875 C -6.679688 -14.21875 -6.800781 -14.207031 -6.9375 -14.1875 C -7.070312 -14.164062 -7.203125 -14.15625 -7.328125 -14.15625 C -7.648438 -14.15625 -7.8125 -14.25 -7.8125 -14.4375 Z M 2.015625 -17.15625 L 2.015625 -17.4375 C 2.035156 -17.476562 2.054688 -17.523438 2.078125 -17.578125 L 2.078125 -17.734375 C 2.109375 -17.773438 2.125 -17.789062 2.125 -17.78125 C 2.125 -17.769531 2.132812 -17.804688 2.15625 -17.890625 L 2.15625 -18.015625 C 2.195312 -18.054688 2.210938 -18.070312 2.203125 -18.0625 C 2.191406 -18.050781 2.195312 -18.085938 2.21875 -18.171875 C 2.21875 -18.296875 2.222656 -18.347656 2.234375 -18.328125 C 2.242188 -18.304688 2.226562 -18.296875 2.1875 -18.296875 L 2.15625 -18.328125 L 2.15625 -18.015625 C 2.132812 -17.992188 2.117188 -17.941406 2.109375 -17.859375 C 2.085938 -17.859375 2.078125 -17.816406 2.078125 -17.734375 C 2.054688 -17.691406 2.046875 -17.671875 2.046875 -17.671875 C 2.046875 -17.671875 2.035156 -17.640625 2.015625 -17.578125 L 2.015625 -17.4375 C 1.992188 -17.414062 1.976562 -17.40625 1.96875 -17.40625 C 1.957031 -17.40625 1.953125 -17.363281 1.953125 -17.28125 C 1.953125 -17.257812 1.953125 -17.238281 1.953125 -17.21875 C 1.953125 -17.195312 1.953125 -17.175781 1.953125 -17.15625 C 1.953125 -17.238281 1.972656 -17.238281 2.015625 -17.15625 Z M 2.25 -18.546875 C 2.25 -18.546875 2.242188 -18.539062 2.234375 -18.53125 C 2.222656 -18.519531 2.21875 -18.492188 2.21875 -18.453125 C 2.21875 -18.390625 2.226562 -18.359375 2.25 -18.359375 L 2.28125 -18.453125 C 2.300781 -18.472656 2.304688 -18.492188 2.296875 -18.515625 C 2.285156 -18.535156 2.269531 -18.546875 2.25 -18.546875 Z M 1.734375 -16.40625 C 1.710938 -16.40625 1.707031 -16.398438 1.71875 -16.390625 C 1.726562 -16.378906 1.734375 -16.375 1.734375 -16.375 Z M 1.734375 -16.40625 "/></g></g></g><g fill="#ffffff" fill-opacity="1"><g transform="translate(243.37829, 242.47699)"><g><path d="M 2.015625 -0.65625 C 1.640625 -0.6875 1.304688 -0.796875 1.015625 -0.984375 C 0.710938 -1.296875 0.5 -1.554688 0.375 -1.765625 C 0.25 -1.972656 0.1875 -2.3125 0.1875 -2.78125 C 0.1875 -3.09375 0.195312 -3.320312 0.21875 -3.46875 C 0.300781 -3.832031 0.453125 -4.226562 0.671875 -4.65625 C 0.898438 -5.09375 1.191406 -5.460938 1.546875 -5.765625 C 1.898438 -6.066406 2.289062 -6.21875 2.71875 -6.21875 C 3.03125 -6.175781 3.25 -6.03125 3.375 -5.78125 C 3.46875 -5.59375 3.507812 -5.375 3.5 -5.125 C 3.5 -4.78125 3.363281 -4.421875 3.09375 -4.046875 C 2.820312 -3.679688 2.492188 -3.367188 2.109375 -3.109375 C 1.734375 -2.847656 1.390625 -2.675781 1.078125 -2.59375 C 1.035156 -2.59375 0.992188 -2.585938 0.953125 -2.578125 C 0.910156 -2.566406 0.878906 -2.5625 0.859375 -2.5625 C 0.835938 -2.539062 0.851562 -2.472656 0.90625 -2.359375 C 0.957031 -2.242188 0.992188 -2.148438 1.015625 -2.078125 C 1.117188 -1.847656 1.300781 -1.679688 1.5625 -1.578125 C 1.820312 -1.472656 2.070312 -1.421875 2.3125 -1.421875 C 3.0625 -1.421875 3.910156 -1.757812 4.859375 -2.4375 C 4.910156 -2.476562 5.023438 -2.566406 5.203125 -2.703125 C 5.378906 -2.835938 5.5625 -2.976562 5.75 -3.125 C 6.28125 -3.53125 6.640625 -3.804688 6.828125 -3.953125 C 7.015625 -4.097656 7.128906 -4.179688 7.171875 -4.203125 C 7.191406 -4.203125 7.207031 -4.207031 7.21875 -4.21875 C 7.226562 -4.226562 7.242188 -4.234375 7.265625 -4.234375 C 7.367188 -4.234375 7.4375 -4.191406 7.46875 -4.109375 C 7.5 -4.023438 7.492188 -3.941406 7.453125 -3.859375 C 7.429688 -3.816406 7.289062 -3.675781 7.03125 -3.4375 C 6.769531 -3.207031 6.476562 -2.957031 6.15625 -2.6875 C 5.84375 -2.414062 5.570312 -2.191406 5.34375 -2.015625 C 4.832031 -1.578125 4.300781 -1.234375 3.75 -0.984375 C 3.207031 -0.742188 2.71875 -0.625 2.28125 -0.625 C 2.238281 -0.625 2.191406 -0.628906 2.140625 -0.640625 C 2.097656 -0.648438 2.054688 -0.65625 2.015625 -0.65625 Z M 1.140625 -3.03125 C 1.492188 -3.132812 1.835938 -3.359375 2.171875 -3.703125 C 2.515625 -4.054688 2.757812 -4.398438 2.90625 -4.734375 C 3.007812 -4.972656 3.035156 -5.1875 2.984375 -5.375 C 2.929688 -5.5625 2.820312 -5.65625 2.65625 -5.65625 C 2.570312 -5.65625 2.429688 -5.597656 2.234375 -5.484375 C 2.046875 -5.367188 1.867188 -5.226562 1.703125 -5.0625 C 1.242188 -4.570312 0.960938 -3.945312 0.859375 -3.1875 C 0.835938 -3.144531 0.828125 -3.097656 0.828125 -3.046875 C 0.828125 -2.992188 0.828125 -2.96875 0.828125 -2.96875 C 0.847656 -2.945312 0.953125 -2.96875 1.140625 -3.03125 Z M 1.140625 -3.03125 "/></g></g></g><g fill="#ffffff" fill-opacity="1"><g transform="translate(56.621782, 131.93057)"><g><path d="M 28.796875 0 L 4.15625 0 C 3.519531 -0.5 2.976562 -1.09375 2.53125 -1.78125 L 2.53125 -2.65625 C 2.53125 -4.613281 2.90625 -6.457031 3.65625 -8.1875 C 4.40625 -9.914062 5.664062 -11.710938 7.4375 -13.578125 C 9.207031 -15.441406 11.640625 -17.582031 14.734375 -20 C 17.378906 -22.039062 19.453125 -23.8125 20.953125 -25.3125 C 22.453125 -26.820312 23.519531 -28.234375 24.15625 -29.546875 C 24.789062 -30.867188 25.109375 -32.234375 25.109375 -33.640625 C 25.109375 -36.015625 24.332031 -37.925781 22.78125 -39.375 C 21.238281 -40.832031 19.21875 -41.5625 16.71875 -41.5625 C 12.945312 -41.5625 9.441406 -39.742188 6.203125 -36.109375 C 5.203125 -36.648438 4.476562 -37.332031 4.03125 -38.15625 C 5.4375 -40.15625 7.273438 -41.742188 9.546875 -42.921875 C 11.828125 -44.109375 14.21875 -44.703125 16.71875 -44.703125 C 20.363281 -44.703125 23.320312 -43.675781 25.59375 -41.625 C 27.863281 -39.582031 29 -36.921875 29 -33.640625 C 29 -31.867188 28.632812 -30.1875 27.90625 -28.59375 C 27.1875 -27 25.945312 -25.316406 24.1875 -23.546875 C 22.4375 -21.773438 20.039062 -19.703125 17 -17.328125 C 14.3125 -15.242188 12.179688 -13.414062 10.609375 -11.84375 C 9.046875 -10.269531 7.929688 -8.8125 7.265625 -7.46875 C 6.609375 -6.125 6.253906 -4.679688 6.203125 -3.140625 L 26.40625 -3.140625 L 28.125 -10.921875 C 28.53125 -11.234375 28.984375 -11.390625 29.484375 -11.390625 C 29.941406 -11.390625 30.304688 -11.300781 30.578125 -11.125 L 30.4375 -1.78125 C 29.976562 -1.09375 29.429688 -0.5 28.796875 0 Z M 28.796875 0 "/></g></g></g><g fill="#ffffff" fill-opacity="1"><g transform="translate(99.415445, 131.93057)"><g><path d="M 33.03125 0 L 17.875 0 C 17.695312 -0.269531 17.609375 -0.632812 17.609375 -1.09375 C 17.609375 -1.59375 17.769531 -2.046875 18.09375 -2.453125 L 24.703125 -3 L 24.703125 -11.875 L 3.828125 -11.875 C 3.328125 -12.46875 2.867188 -13.148438 2.453125 -13.921875 L 26.140625 -44.296875 C 26.546875 -44.203125 26.953125 -44.078125 27.359375 -43.921875 C 27.773438 -43.765625 28.140625 -43.570312 28.453125 -43.34375 L 28.453125 -14.953125 L 34.671875 -14.953125 C 35.398438 -14.953125 35.765625 -14.628906 35.765625 -13.984375 C 35.765625 -13.671875 35.648438 -13.128906 35.421875 -12.359375 L 35.28125 -11.875 L 28.453125 -11.875 L 28.453125 -3.140625 L 32.421875 -3.140625 C 33.148438 -3.140625 33.515625 -2.820312 33.515625 -2.1875 C 33.515625 -1.863281 33.398438 -1.316406 33.171875 -0.546875 Z M 24.703125 -14.953125 L 24.703125 -37.328125 L 7.4375 -14.953125 Z M 24.703125 -14.953125 "/></g></g></g><g fill="#ffffff" fill-opacity="1"><g transform="translate(145.280281, 131.93057)"><g/></g></g><g fill="#ffffff" fill-opacity="1"><g transform="translate(169.715219, 131.93057)"><g><path d="M 19.796875 -2.53125 C 22.109375 -2.53125 24.050781 -3.085938 25.625 -4.203125 C 27.195312 -5.316406 28.457031 -6.816406 29.40625 -8.703125 C 30.363281 -10.585938 31.054688 -12.675781 31.484375 -14.96875 C 31.921875 -17.269531 32.140625 -19.628906 32.140625 -22.046875 C 32.140625 -24.410156 31.921875 -26.738281 31.484375 -29.03125 C 31.054688 -31.332031 30.363281 -33.425781 29.40625 -35.3125 C 28.457031 -37.207031 27.195312 -38.710938 25.625 -39.828125 C 24.050781 -40.941406 22.109375 -41.5 19.796875 -41.5 C 17.472656 -41.5 15.523438 -40.941406 13.953125 -39.828125 C 12.390625 -38.710938 11.128906 -37.207031 10.171875 -35.3125 C 9.210938 -33.425781 8.515625 -31.332031 8.078125 -29.03125 C 7.648438 -26.738281 7.4375 -24.410156 7.4375 -22.046875 C 7.4375 -19.628906 7.648438 -17.269531 8.078125 -14.96875 C 8.515625 -12.675781 9.210938 -10.585938 10.171875 -8.703125 C 11.128906 -6.816406 12.390625 -5.316406 13.953125 -4.203125 C 15.523438 -3.085938 17.472656 -2.53125 19.796875 -2.53125 Z M 19.796875 0.6875 C 16.742188 0.6875 14.171875 0.015625 12.078125 -1.328125 C 9.984375 -2.671875 8.300781 -4.445312 7.03125 -6.65625 C 5.757812 -8.863281 4.835938 -11.304688 4.265625 -13.984375 C 3.691406 -16.671875 3.40625 -19.359375 3.40625 -22.046875 C 3.40625 -24.734375 3.691406 -27.40625 4.265625 -30.0625 C 4.835938 -32.726562 5.757812 -35.160156 7.03125 -37.359375 C 8.300781 -39.566406 9.984375 -41.34375 12.078125 -42.6875 C 14.171875 -44.03125 16.742188 -44.703125 19.796875 -44.703125 C 22.835938 -44.703125 25.40625 -44.03125 27.5 -42.6875 C 29.59375 -41.34375 31.273438 -39.566406 32.546875 -37.359375 C 33.828125 -35.160156 34.75 -32.726562 35.3125 -30.0625 C 35.882812 -27.40625 36.171875 -24.734375 36.171875 -22.046875 C 36.171875 -19.359375 35.882812 -16.671875 35.3125 -13.984375 C 34.75 -11.304688 33.828125 -8.863281 32.546875 -6.65625 C 31.273438 -4.445312 29.59375 -2.671875 27.5 -1.328125 C 25.40625 0.015625 22.835938 0.6875 19.796875 0.6875 Z M 19.796875 0.6875 "/></g></g></g><g fill="#ffffff" fill-opacity="1"><g transform="translate(216.67202, 131.93057)"><g><path d="M 8.265625 -2.046875 C 13.953125 -4.410156 18.546875 -7.503906 22.046875 -11.328125 C 25.546875 -15.148438 27.820312 -19.472656 28.875 -24.296875 C 27.820312 -21.742188 26.226562 -19.726562 24.09375 -18.25 C 21.957031 -16.769531 19.5 -16.03125 16.71875 -16.03125 C 14.175781 -16.03125 11.867188 -16.664062 9.796875 -17.9375 C 7.722656 -19.21875 6.082031 -20.945312 4.875 -23.125 C 3.675781 -25.3125 3.078125 -27.75 3.078125 -30.4375 C 3.078125 -33.21875 3.6875 -35.675781 4.90625 -37.8125 C 6.132812 -39.945312 7.816406 -41.628906 9.953125 -42.859375 C 12.097656 -44.085938 14.535156 -44.703125 17.265625 -44.703125 C 20.222656 -44.703125 22.804688 -43.992188 25.015625 -42.578125 C 27.222656 -41.171875 28.914062 -39.179688 30.09375 -36.609375 C 31.28125 -34.046875 31.875 -31.035156 31.875 -27.578125 C 31.875 -23.484375 30.960938 -19.613281 29.140625 -15.96875 C 27.316406 -12.332031 24.753906 -9.078125 21.453125 -6.203125 C 18.160156 -3.335938 14.238281 -1.039062 9.6875 0.6875 C 8.957031 0.132812 8.484375 -0.773438 8.265625 -2.046875 Z M 17.328125 -19.25 C 19.378906 -19.25 21.1875 -19.722656 22.75 -20.671875 C 24.320312 -21.628906 25.550781 -22.945312 26.4375 -24.625 C 27.332031 -26.3125 27.78125 -28.226562 27.78125 -30.375 C 27.78125 -33.644531 26.789062 -36.316406 24.8125 -38.390625 C 22.832031 -40.460938 20.316406 -41.5 17.265625 -41.5 C 14.210938 -41.5 11.742188 -40.472656 9.859375 -38.421875 C 7.972656 -36.378906 7.03125 -33.695312 7.03125 -30.375 C 7.03125 -27.09375 7.984375 -24.414062 9.890625 -22.34375 C 11.804688 -20.28125 14.285156 -19.25 17.328125 -19.25 Z M 17.328125 -19.25 "/></g></g></g><g fill="#ffffff" fill-opacity="1"><g transform="translate(259.329178, 131.93057)"><g/></g></g><g fill="#ffffff" fill-opacity="1"><g transform="translate(283.764107, 131.93057)"><g><path d="M 28.796875 0 L 4.15625 0 C 3.519531 -0.5 2.976562 -1.09375 2.53125 -1.78125 L 2.53125 -2.65625 C 2.53125 -4.613281 2.90625 -6.457031 3.65625 -8.1875 C 4.40625 -9.914062 5.664062 -11.710938 7.4375 -13.578125 C 9.207031 -15.441406 11.640625 -17.582031 14.734375 -20 C 17.378906 -22.039062 19.453125 -23.8125 20.953125 -25.3125 C 22.453125 -26.820312 23.519531 -28.234375 24.15625 -29.546875 C 24.789062 -30.867188 25.109375 -32.234375 25.109375 -33.640625 C 25.109375 -36.015625 24.332031 -37.925781 22.78125 -39.375 C 21.238281 -40.832031 19.21875 -41.5625 16.71875 -41.5625 C 12.945312 -41.5625 9.441406 -39.742188 6.203125 -36.109375 C 5.203125 -36.648438 4.476562 -37.332031 4.03125 -38.15625 C 5.4375 -40.15625 7.273438 -41.742188 9.546875 -42.921875 C 11.828125 -44.109375 14.21875 -44.703125 16.71875 -44.703125 C 20.363281 -44.703125 23.320312 -43.675781 25.59375 -41.625 C 27.863281 -39.582031 29 -36.921875 29 -33.640625 C 29 -31.867188 28.632812 -30.1875 27.90625 -28.59375 C 27.1875 -27 25.945312 -25.316406 24.1875 -23.546875 C 22.4375 -21.773438 20.039062 -19.703125 17 -17.328125 C 14.3125 -15.242188 12.179688 -13.414062 10.609375 -11.84375 C 9.046875 -10.269531 7.929688 -8.8125 7.265625 -7.46875 C 6.609375 -6.125 6.253906 -4.679688 6.203125 -3.140625 L 26.40625 -3.140625 L 28.125 -10.921875 C 28.53125 -11.234375 28.984375 -11.390625 29.484375 -11.390625 C 29.941406 -11.390625 30.304688 -11.300781 30.578125 -11.125 L 30.4375 -1.78125 C 29.976562 -1.09375 29.429688 -0.5 28.796875 0 Z M 28.796875 0 "/></g></g></g><g fill="#ffffff" fill-opacity="1"><g transform="translate(326.557765, 131.93057)"><g><path d="M 6.421875 -19.71875 C 7.460938 -22.269531 9.039062 -24.285156 11.15625 -25.765625 C 13.269531 -27.242188 15.738281 -27.984375 18.5625 -27.984375 C 21.113281 -27.984375 23.421875 -27.34375 25.484375 -26.0625 C 27.554688 -24.789062 29.195312 -23.0625 30.40625 -20.875 C 31.613281 -18.695312 32.21875 -16.265625 32.21875 -13.578125 C 32.21875 -10.804688 31.601562 -8.347656 30.375 -6.203125 C 29.144531 -4.066406 27.457031 -2.382812 25.3125 -1.15625 C 23.175781 0.0703125 20.742188 0.6875 18.015625 0.6875 C 15.015625 0.6875 12.421875 -0.015625 10.234375 -1.421875 C 8.054688 -2.835938 6.375 -4.816406 5.1875 -7.359375 C 4 -9.910156 3.40625 -12.941406 3.40625 -16.453125 C 3.40625 -20.492188 4.316406 -24.347656 6.140625 -28.015625 C 7.960938 -31.679688 10.535156 -34.957031 13.859375 -37.84375 C 17.179688 -40.726562 21.09375 -43.015625 25.59375 -44.703125 C 26.320312 -44.160156 26.800781 -43.25 27.03125 -41.96875 C 21.382812 -39.5625 16.796875 -36.457031 13.265625 -32.65625 C 9.742188 -28.851562 7.460938 -24.539062 6.421875 -19.71875 Z M 18.015625 -2.53125 C 21.066406 -2.53125 23.535156 -3.550781 25.421875 -5.59375 C 27.304688 -7.644531 28.25 -10.332031 28.25 -13.65625 C 28.25 -16.925781 27.289062 -19.597656 25.375 -21.671875 C 23.46875 -23.742188 20.992188 -24.78125 17.953125 -24.78125 C 15.898438 -24.78125 14.085938 -24.300781 12.515625 -23.34375 C 10.953125 -22.382812 9.722656 -21.070312 8.828125 -19.40625 C 7.941406 -17.75 7.5 -15.832031 7.5 -13.65625 C 7.5 -10.375 8.476562 -7.695312 10.4375 -5.625 C 12.394531 -3.5625 14.921875 -2.53125 18.015625 -2.53125 Z M 18.015625 -2.53125 "/></g></g></g></svg>